<svg version="1.1" id="_x2014_лой_x5F_1" xmlns="http://www.w3.org/2000/svg" x="0" y="0" viewBox="0 0 2067.8 989" xml:space="preserve"><style>.st0{fill:#0e98bd}</style><path class="st0" d="M2026.2 164c.8 1.8 0 4-1.8 4.8-1.8.8-4 0-4.8-1.8-.8-1.8 0-4 1.8-4.8 1.9-.8 4 0 4.8 1.8zm3.2 80.9c.8 1.8 0 4-1.8 4.8-1.8.8-4 0-4.8-1.8-.8-1.8 0-4 1.8-4.8 1.9-.8 4 0 4.8 1.8zm-105.2-100.5c.8 1.8 0 4-1.8 4.8-1.8.8-4 0-4.8-1.8-.8-1.8 0-4 1.8-4.8 1.8-.9 4 0 4.8 1.8zm-154.6 91.4c.8 1.8 0 4-1.8 4.8-1.8.8-4 0-4.8-1.8-.8-1.8 0-4 1.8-4.8 1.8-.8 4 0 4.8 1.8zm98.5 75.4c.8 1.8 0 4-1.8 4.8-1.8.8-4 0-4.8-1.8-.8-1.8 0-4 1.8-4.8 1.8-.8 3.9 0 4.8 1.8zM1896 334c.8 1.8 0 4-1.8 4.8-1.8.8-4 0-4.8-1.8-.8-1.8 0-4 1.8-4.8 1.8-.9 4 0 4.8 1.8zm-58.1 65.3c.8 1.8 0 4-1.8 4.8-1.8.8-4 0-4.8-1.8-.8-1.8 0-4 1.8-4.8 1.8-.9 4 0 4.8 1.8zm-22.2-51.2c.8 1.8 0 4-1.8 4.8-1.8.8-4 0-4.8-1.8-.8-1.8 0-4 1.8-4.8 1.9-.8 4 0 4.8 1.8zm-19.4 4c.8 1.8 0 4-1.8 4.8-1.8.8-4 0-4.8-1.8-.8-1.8 0-4 1.8-4.8 1.8-.9 4-.1 4.8 1.8zm-36.1-38.9c.8 1.8 0 4-1.8 4.8-1.8.8-4 0-4.8-1.8-.8-1.8 0-4 1.8-4.8 1.8-.8 3.9 0 4.8 1.8zm-118.1 121.3c.8 1.8 0 4-1.8 4.8-1.8.8-4 0-4.8-1.8-.8-1.8 0-4 1.8-4.8 1.8-.9 4 0 4.8 1.8zM1356 458.9c.8 1.8 0 4-1.8 4.8-1.8.8-4 0-4.8-1.8-.8-1.8 0-4 1.8-4.8 1.8-.9 4-.1 4.8 1.8zm-15.9 120.7c.8 1.8 0 4-1.8 4.8-1.8.8-4 0-4.8-1.8-.8-1.8 0-4 1.8-4.8 1.8-.8 4 0 4.8 1.8zm29.2 54.7c.8 1.8 0 4-1.8 4.8-1.8.8-4 0-4.8-1.8-.8-1.8 0-4 1.8-4.8 1.9-.8 4 0 4.8 1.8zm127.5-3.3c.8 1.8 0 4-1.8 4.8-1.8.8-4 0-4.8-1.8-.8-1.8 0-4 1.8-4.8 1.9-.8 4 0 4.8 1.8zm-33.1 101.8c.8 1.8 0 4-1.8 4.8-1.8.8-4 0-4.8-1.8-.8-1.8 0-4 1.8-4.8 1.9-.8 4 0 4.8 1.8zm6.8-314.7c.8 1.8 0 4-1.8 4.8-1.8.8-4 0-4.8-1.8-.8-1.8 0-4 1.8-4.8 1.8-.9 3.9-.1 4.8 1.8zm426.7 74.3c.8 1.8 0 4-1.8 4.8-1.8.8-4 0-4.8-1.8-.8-1.8 0-4 1.8-4.8 1.8-.9 4 0 4.8 1.8zm-96.2 1.7c.8 1.8 0 4-1.8 4.8-1.8.8-4 0-4.8-1.8-.8-1.8 0-4 1.8-4.8 1.8-.8 4 0 4.8 1.8zm-75.2-130.2c.8 1.8 0 4-1.8 4.8-1.8.8-4 0-4.8-1.8-.8-1.8 0-4 1.8-4.8 1.8-.8 4 0 4.8 1.8zm-106 61.9c.8 1.8 0 4-1.8 4.8-1.8.8-4 0-4.8-1.8-.8-1.8 0-4 1.8-4.8 1.8-.9 4 0 4.8 1.8zm-80.7 83.9c.8 1.8 0 4-1.8 4.8-1.8.8-4 0-4.8-1.8-.8-1.8 0-4 1.8-4.8 1.8-.9 3.9-.1 4.8 1.8zm-103.5-7.5c.8 1.8 0 4-1.8 4.8-1.8.8-4 0-4.8-1.8-.8-1.8 0-4 1.8-4.8 1.8-.9 4-.1 4.8 1.8zm-26.7 53.3c.8 1.8 0 4-1.8 4.8-1.8.8-4 0-4.8-1.8-.8-1.8 0-4 1.8-4.8 1.8-.9 4-.1 4.8 1.8zm217.3 71.5c.8 1.8 0 4-1.8 4.8-1.8.8-4 0-4.8-1.8-.8-1.8 0-4 1.8-4.8 1.8-.9 4-.1 4.8 1.8zm-27.1 0c.8 1.8 0 4-1.8 4.8-1.8.8-4 0-4.8-1.8-.8-1.8 0-4 1.8-4.8 1.8-.9 3.9-.1 4.8 1.8zm22.9-82.3c.8 1.8 0 4-1.8 4.8-1.8.8-4 0-4.8-1.8-.8-1.8 0-4 1.8-4.8 1.8-.9 4 0 4.8 1.8zm211.7 15.1c.8 1.8 0 4-1.8 4.8-1.8.8-4 0-4.8-1.8-.8-1.8 0-4 1.8-4.8 1.9-.8 4 0 4.8 1.8zm-136 95c.8 1.8 0 4-1.8 4.8-1.8.8-4 0-4.8-1.8-.8-1.8 0-4 1.8-4.8 1.8-.8 4 0 4.8 1.8zm-166.5-301.7c.8 1.8 0 4-1.8 4.8-1.8.8-4 0-4.8-1.8-.8-1.8 0-4 1.8-4.8 1.8-.9 3.9-.1 4.8 1.8zm478.3 73.3c.8 1.8 0 4-1.8 4.8-1.8.8-4 0-4.8-1.8-.8-1.8 0-4 1.8-4.8 1.8-.9 4-.1 4.8 1.8zm-39.8-105.3c.8 1.8 0 4-1.8 4.8-1.8.8-4 0-4.8-1.8-.8-1.8 0-4 1.8-4.8 1.8-.8 3.9 0 4.8 1.8zM1866 443.3c.8 1.8 0 4-1.8 4.8-1.8.8-4 0-4.8-1.8-.8-1.8 0-4 1.8-4.8 1.8-.8 4 0 4.8 1.8zm-305.3-93.5c.8 1.8 0 4-1.8 4.8-1.8.8-4 0-4.8-1.8-.8-1.8 0-4 1.8-4.8 1.8-.8 4 0 4.8 1.8zm103.4-29.5c.8 1.8 0 4-1.8 4.8-1.8.8-4 0-4.8-1.8-.8-1.8 0-4 1.8-4.8 1.8-.9 4-.1 4.8 1.8z"/><path class="st0" d="M1535.8 511.2l.1-.1-68.4-91.6-.1-.1-115 41-.2-.1v.1l-.4.2.4.1-15.4 120.4-.1.4 95.6-77.7 103.4 7.5.1-.1zm-68.5-91.4l68 91.1-182.3-50.4 114.3-40.7zm-113.5 41.3l180.1 49.8-101.6-7.4-78.5-42.4zm78.2 42.6l-94.8 77 15.3-119.9 79.5 42.9z"/><path class="st0" d="M1535.9 511.3l80.7-83.8.1-.1-59.2-76.1-.3-.3-21.6 160-198.7 69.9.1.3 198.8-69.9h.1zm80.3-84l-80.2 83.4 21.5-158.9 58.7 75.5z"/><path class="st0" d="M1557.5 351.5l.5-.4-30.5 3.1h-.1l-60.2 65.3.2.3 90.1-68.3zm-.7.1l-88 66.7 58.8-63.7 29.2-3zm62.1 194.6v-.2l-83.2-35-.4-.2 60.6 118.6 23-83.2zm-.3.1l-22.7 82.2-59.7-116.9 82.4 34.7z"/><path class="st0" d="M1834.7 400.9l58.1-65.3-.2-.3L1618.7 546l-.9.6 180-50.8h.1l36.8-94.9zm-.5.4l-36.7 94.2-177.7 50.2 214.4-144.4zm.3-.6l-211.1 142.2 267.9-206.1-56.8 63.9z"/><path class="st0" d="M1864.3 313.6l28.3 22 .2.2 28.2-189.9-.3-.1-56.6 167.2-97.9-76.1-.5-.4 68.7 164.4.2.4 29.7-87.7zm-.3-.2l-29.4 86.9-68-162.7 97.4 75.8zm56.4-165.6l-27.9 187.3-28.1-21.9 56-165.4z"/><path class="st0" d="M1618.9 546.2l103.6-180.6 112 35.3.6.2-77.6-87.4-.2-.2-35 51.7-68.3-5.8 7.2-38.1.1-.3-104 30.2-.9.3 88.6 7.6-28.7 68.3 2.3 118.9v1.8-.2l3.6 80.7-216.6-71.6-.1.3 189.5 71.6-228.9 6.8v.4l229.8-6.8h.9L1413.6 560l208.7 69 .2.1-3.6-82.9zm103.3-180.6l-103 179.6 34.9-185.4 68.1 5.8zm-76.8-6.6l8.3.7-34.7 184.7-2.3-117.1 28.7-68.3zm112-44.9l76.6 86.3-111.3-35.1 34.7-51.2zm-96.8 8.7l-6.9 36.5-8.2-.7 15.1-35.8zm.2-1.3l-15.6 37.2-86.8-7.4 102.4-29.8z"/><path class="st0" d="M1622.3 628.8l-86.6-117.4-170.1 124.9.4-.7 66.1-132 .4.2-65.9 131.3 169.2-124.2.1.2 86.6 117.5zm208.3-67.5h-.3l62.1-225.6-169.7 29.8 75.4 130.5-.5-.2-181.2-68.3.1-.3 180.8 68.1-75.1-130 .2-.1 170.5-29.9-.1.2z"/><path class="st0" d="M1805.6 511.2l88.5-16.7h.3l-59.6-93.8-.3.2 59.3 93.3-96.1 1.3h-.3l7.7 15.4-187.7 35.3 213 15.2h.3l-25.1-50.2zm-.4 0l24.9 49.9-210-15 185.1-34.9zm-7.3-15.4l94.1-1.3-86.6 16.3-7.5-15z"/><path class="st0" d="M1892.8 335.6l133.4-89.1-.1-.1h.2l-3.2-80.9v-.4l-158.5 147.5-.7.7 160.6-66-132 88.1-95 160.2.3.2 95-160.2zm130-169.7l3.2 80.4-160.3 65.9 157.1-146.3zm-563.1 568l.1-.5 75.8-222.3.3.1-75.6 221.8 162-104.5 208.1-67.4.1.4-208 67.3z"/><path class="st0" d="M1695.3 657.1l-.2-.2-76.5-110.6.3-.2 76.4 110.4 102.2-161 .3.2zm331.3-410.5h-.5l-260-9.4.1-.3 259.5 9.3-105-100.2.3-.2z"/><path class="st0" d="M2025.2 245.9l-.2.1-59 77.2-.1-.1 58.9-77"/><path class="st0" d="M1966.3 322.6l.1.2 40.9 105.7-.1.1-40.9-105.6"/><path class="st0" d="M1893.5 337.3h.4l72.6-14.8v.4l-72.1 14.7 113.1 90.9-.2.3z"/><path class="st0" d="M2007.4 428.6h-.2l-144.5 16.2-.1-.2 144.3-16.2M706.8 752.1c-1.6 1.2-3.9.9-5.1-.6-1.2-1.6-.9-3.9.6-5.1 1.6-1.2 3.9-.9 5.1.6 1.3 1.6 1 3.8-.6 5.1zm-77.9 22c-1.6 1.2-3.9.9-5.1-.6-1.2-1.6-.9-3.9.6-5.1 1.6-1.2 3.9-.9 5.1.6 1.3 1.6 1 3.9-.6 5.1zM702 648.3c-1.6 1.2-3.9.9-5.1-.6-1.2-1.6-.9-3.9.6-5.1 1.6-1.2 3.9-.9 5.1.6 1.3 1.5 1 3.8-.6 5.1zm-125-129c-1.6 1.2-3.9.9-5.1-.6-1.2-1.6-.9-3.9.6-5.1 1.6-1.2 3.9-.9 5.1.6 1.3 1.6 1 3.9-.6 5.1zm-50.3 113.4c-1.6 1.2-3.9.9-5.1-.6-1.2-1.6-.9-3.9.6-5.1 1.6-1.2 3.9-.9 5.1.7 1.3 1.5 1 3.7-.6 5zm-15.6 32.4c-1.6 1.2-3.9.9-5.1-.6-1.2-1.6-.9-3.9.6-5.1 1.6-1.2 3.9-.9 5.1.6 1.3 1.6 1 3.9-.6 5.1zM434 623.9c-1.6 1.2-3.9.9-5.1-.6-1.2-1.6-.9-3.9.6-5.1 1.6-1.2 3.9-1 5.1.6 1.3 1.6 1 3.9-.6 5.1zm44.6-33.5c-1.6 1.2-3.9.9-5.1-.6-1.2-1.6-.9-3.9.6-5.1 1.6-1.2 3.9-.9 5.1.6 1.3 1.6 1 3.9-.6 5.1zm-8.4-18c-1.6 1.2-3.9.9-5.1-.6-1.2-1.6-.9-3.9.6-5.1 1.6-1.2 3.9-.9 5.1.6 1.3 1.6 1 3.9-.6 5.1zm29.4-44.2c-1.6 1.2-3.9.9-5.1-.6-1.2-1.6-.9-3.9.6-5.1 1.6-1.2 3.9-.9 5.1.6 1.3 1.6 1 3.9-.6 5.1zm-145.5-86.4c-1.6 1.2-3.9.9-5.1-.6-1.2-1.6-.9-3.9.7-5.1 1.6-1.2 3.9-.9 5.1.6 1.1 1.5.9 3.8-.7 5.1zm-90.6-272.5c-1.6 1.2-3.9.9-5.1-.6-1.2-1.6-.9-3.9.6-5.1 1.6-1.2 3.9-.9 5.1.6 1.3 1.6 1 3.8-.6 5.1zM142.4 182c-1.6 1.2-3.9.9-5.1-.6-1.2-1.6-.9-3.9.6-5.1 1.6-1.2 3.9-.9 5.1.6 1.3 1.6 1 3.9-.6 5.1zM96 223.2c-1.6 1.2-3.9.9-5.1-.6-1.2-1.6-.9-3.9.6-5.1 1.6-1.2 3.9-.9 5.1.6 1.3 1.6 1 3.9-.6 5.1zm33 123.2c-1.6 1.2-3.9.9-5.1-.6-1.2-1.6-.9-3.9.6-5.1 1.6-1.2 3.9-.9 5.1.6 1.3 1.6 1 3.9-.6 5.1zM22.3 338c-1.6 1.2-3.9.9-5.1-.6-1.2-1.6-.9-3.9.6-5.1 1.6-1.2 3.9-.9 5.1.6 1.3 1.6 1 3.9-.6 5.1zm307.6-67c-1.6 1.2-3.9.9-5.1-.6-1.2-1.6-.9-3.9.6-5.1 1.6-1.2 3.9-.9 5.1.6 1.3 1.6 1 3.9-.6 5.1zm27.5 432.3c-1.6 1.2-3.9.9-5.1-.6-1.2-1.6-.9-3.9.6-5.1 1.6-1.2 3.9-.9 5.1.6 1.3 1.6 1 3.9-.6 5.1zm-24.2-93.1c-1.6 1.2-3.9.9-5.1-.6-1.2-1.6-.9-3.9.6-5.1 1.6-1.2 3.9-.9 5.1.6 1.3 1.6 1 3.9-.6 5.1zm109-103.6c-1.6 1.2-3.9.9-5.1-.6-1.2-1.6-1-3.9.6-5.1 1.6-1.2 3.9-.9 5.1.6 1.3 1.6 1 3.9-.6 5.1zM357.3 418c-1.6 1.2-3.9.9-5.1-.6-1.2-1.6-.9-3.9.6-5.1 1.6-1.2 3.9-.9 5.1.6 1.3 1.6 1 3.9-.6 5.1zm-100.4-58.8c-1.6 1.2-3.9.9-5.1-.6-1.2-1.6-.9-3.9.6-5.1 1.6-1.2 3.9-.9 5.1.6 1.3 1.5 1 3.8-.6 5.1zM240 256.8c-1.6 1.2-3.9.9-5.1-.6-1.2-1.6-.9-3.9.6-5.1 1.6-1.2 3.9-.9 5.1.6 1.3 1.6 1 3.9-.6 5.1zm-58-13.5c-1.6 1.2-3.9.9-5.1-.6-1.2-1.6-.9-3.9.6-5.1 1.6-1.2 3.9-.9 5.1.6 1.2 1.6.9 3.9-.6 5.1zm-18.8 228c-1.6 1.2-3.9.9-5.1-.6-1.2-1.6-.9-3.9.6-5.1 1.6-1.2 3.9-.9 5.1.6 1.3 1.6 1 3.9-.6 5.1zm-6.3-26.4c-1.6 1.2-3.9.9-5.1-.6-1.2-1.6-.9-3.9.6-5.1 1.6-1.2 3.9-.9 5.1.6 1.2 1.6 1 3.9-.6 5.1zm85.3 3.1c-1.6 1.2-3.9.9-5.1-.6-1.2-1.6-.9-3.9.6-5.1 1.6-1.2 3.9-.9 5.1.6 1.3 1.6 1 3.9-.6 5.1zM277 657.4c-1.6 1.2-3.9.9-5.1-.6-1.2-1.6-.9-3.9.6-5.1 1.6-1.2 3.9-.9 5.1.6 1.3 1.6 1 3.9-.6 5.1zM152.8 547.3c-1.6 1.2-3.9.9-5.1-.6-1.2-1.6-.9-3.9.6-5.1 1.6-1.2 3.9-.9 5.1.6 1.3 1.6 1 3.9-.6 5.1zm254.5-232.4c-1.6 1.2-3.9.9-5.1-.6-1.2-1.6-.9-3.9.6-5.1 1.6-1.2 3.9-.9 5.1.6 1.3 1.6 1 3.8-.6 5.1zm40.5 482.2c-1.6 1.2-3.9.9-5.1-.6-1.2-1.6-.9-3.9.6-5.1 1.6-1.2 3.9-.9 5.1.6 1.3 1.6 1 3.9-.6 5.1zm93-63.3c-1.6 1.2-3.9.9-5.1-.6-1.2-1.6-.9-3.9.6-5.1 1.6-1.2 3.9-.9 5.1.6 1.3 1.5 1 3.8-.6 5.1zm-143-72.3c-1.6 1.2-3.9.9-5.1-.6-1.2-1.6-.9-3.9.6-5.1 1.6-1.2 3.9-.9 5.1.6 1.3 1.6 1 3.9-.6 5.1zm19.6-318.6c-1.6 1.2-3.9.9-5.1-.6-1.2-1.6-.9-3.9.6-5.1 1.6-1.2 3.9-.9 5.1.6s1 3.8-.6 5.1zm52.9 93.5c-1.6 1.2-3.9.9-5.1-.6-1.2-1.6-.9-3.9.6-5.1 1.6-1.2 3.9-.9 5.1.6 1.3 1.6 1 3.9-.6 5.1z"/><path class="st0" d="M254.7 356.3l.1.1 73.1-87.9.1-.1-66.7-102.2v-.2h-.1l-.2-.4v.4l-120.7 13.2h-.4l97.9 74.8 16.9 102.3zm72.8-88l-72.6 87.4 6.4-189.1 66.2 101.7zm-66.7-100.6l-6.3 186.8L238 254l22.8-86.3zm-23.1 85.9l-97-74.2 120.1-13.1-23.1 87.3z"/><path class="st0" d="M254.6 356.5L355 415.3l.1.1 60.2-75.3.3-.3-160.8 16.3-114.4-176.9-.3.2 114.4 177 .1.1zM355 414.9l-99.8-58.5 159.5-16.2-59.7 74.7z"/><path class="st0" d="M415 340.1l.5.4-10.2-28.9v-.1l-77.5-43.3-.2.3 87.4 71.6zm-.2-.7l-85.4-70 75.7 42.3 9.7 27.7zM240 445.4h.2l14.6-89 .1-.5-101.1 86.6 86.2 2.9zm-.1-.4l-85.2-2.9 99.7-85.4-14.5 88.3z"/><path class="st0" d="M431.7 621.2l77 41.2.2-.3L240.2 445l-.8-.7 91.5 163.1v.1l100.8 13.7zm-.4-.4l-100.2-13.7L240.8 446l190.5 174.8zm.6.1l-187.6-172 263 212.4-75.4-40.4z"/><path class="st0" d="M523.5 629.6l-14.8 32.6-.1.3 191.2-16.9v-.4l-175.8-16 51.2-112.9.3-.6-143.8 105.2-.4.3 92.2 8.4zm.2-.4l-91.4-8.3 142.3-104.1-50.9 112.4zm174.1 16.2l-188.7 16.7 14.7-32.5 174 15.8z"/><path class="st0" d="M240 445.4l199.8 58.5-8.2 117.1v.6l66.9-95.9.1-.2-58.4-21.9-10.3-67.8 38.8-1.9.3.1-53.7-94.1-.5-.8 13.3 87.9-73.1-12-115 30-1.7.5h.2l-77.7 22.3 19-227.3h-.4l-25.4 201-60.1-221-.3.1 60.3 221.9.2.9 24.5-194.3L160.5 468v.3l79.5-22.9zm199.8 58.1l-198.7-58.2 188.4-9.4 10.3 67.6zm-11.6-76.2l1.2 8.2-187.7 9.4L355 415.3l73.2 12zm69.8 98.4l-66 94.7 8.1-116.4 57.9 21.7zm-31-92l-37.1 1.9-1.2-8.1 38.3 6.2zm1.3-.2l-39.8-6.5-13.1-86.1 52.9 92.6z"/><path class="st0" d="M160.5 467.9l93.9-111.6L93.3 220.1l.7.2 143.8 33.5-.1.3-143.1-33.3 160.3 135.5-.1.1-94 111.7zm114.3 186.8v-.4l233.8 7.8-68.7-158-109.2 103.7.1-.5 24.1-192.1h.3l-24 191.6 108.9-103.3.1.2 68.9 158.8-.2-.1z"/><path class="st0" d="M317.7 618.7l36.9 82.2.1.2 77.2-79.9-.3-.2-76.8 79.5-23.7-93.1-.1-.3-13.2 11.1L239.6 444l34.9 210.7.1.3 43.1-36.3zm-.1-.4l-42.7 35.8-34.4-207.7 77.1 171.9zm13.3-10.7l23.2 91.2-36.1-80.4 12.9-10.8z"/><path class="st0" d="M508.8 662.4l117.8 108.9.1-.1v.2l77.9-22 .4-.1-180.4-119.6-.8-.5L625.5 770 509 662.1l-178-55-.1.3 177.9 55zm195.4 86.7L626.8 771 525.2 630.5l179 118.6zM20.3 334.3l.5.1 233.9 21.7-.1.4-233.3-21.7 139.5 133.1 114.1 186.5-.3.2-114.1-186.5z"/><path class="st0" d="M150 545.5l.2-.2 89.7-100.2.3.2-89.5 100L331 607.1l-.1.4zm476.6 226.2l-.1-.5-51.6-254.9.3-.1 51.6 254.5 72.9-125.4.3.2z"/><path class="st0" d="M627 770.1h-.2L538 730.7l.1-.1 88.6 39.3"/><path class="st0" d="M538.6 730.9l-.1.1-93.3 64.5-.1-.1 93.1-64.4"/><path class="st0" d="M507.3 663.5l.1.4 31.3 67.1-.3.1-31.2-66.6-61.9 131.1-.4-.1z"/><path class="st0" d="M445.2 795.6l-.1-.2-49.5-136.8h.1L445.2 795m126.5-280.1c1-1.8 3.2-2.4 5-1.4 1.8 1 2.4 3.2 1.4 5-1 1.8-3.2 2.4-5 1.4-1.8-1-2.4-3.3-1.4-5zm63.5-50.3c1-1.8 3.2-2.4 5-1.4 1.7 1 2.4 3.2 1.4 5-1 1.8-3.2 2.4-5 1.4-1.8-1-2.4-3.2-1.4-5zM616 608.9c1-1.8 3.2-2.4 5-1.4 1.7 1 2.4 3.2 1.4 5-1 1.7-3.2 2.4-5 1.4-1.7-1-2.4-3.3-1.4-5zm165 71c1-1.7 3.2-2.4 5-1.4 1.7 1 2.4 3.2 1.4 5-1 1.8-3.2 2.4-5 1.4-1.8-1.1-2.4-3.3-1.4-5zm2.9-124c1-1.7 3.2-2.4 5-1.4 1.8 1 2.4 3.2 1.4 5-1 1.8-3.2 2.4-5 1.4-1.8-1.1-2.4-3.3-1.4-5zm1.9-36c1-1.7 3.2-2.4 5-1.4 1.8 1 2.4 3.2 1.4 5-1 1.8-3.2 2.4-5 1.4-1.8-1-2.4-3.3-1.4-5zm87 8.4c1-1.8 3.2-2.4 5-1.4 1.8 1 2.4 3.2 1.4 5-1 1.8-3.2 2.4-5 1.4-1.8-1-2.4-3.3-1.4-5zm-28.3 48.1c1-1.8 3.2-2.4 5-1.4 1.8 1 2.4 3.2 1.4 5-1 1.8-3.2 2.4-5 1.4-1.7-1.1-2.4-3.3-1.4-5zm14.7 13.4c1-1.8 3.2-2.4 5-1.4 1.8 1 2.4 3.2 1.4 5-1 1.8-3.2 2.4-5 1.4-1.8-1.1-2.4-3.3-1.4-5zm-10.1 52c1-1.8 3.2-2.4 5-1.4 1.8 1 2.4 3.2 1.4 5-1 1.7-3.2 2.4-5 1.4-1.8-1-2.4-3.2-1.4-5zm167.6 23.9c1-1.8 3.2-2.4 5-1.4 1.8 1 2.4 3.2 1.4 5-1 1.8-3.2 2.4-5 1.4-1.8-1-2.4-3.2-1.4-5zm188.4 216.7c1-1.8 3.2-2.4 5-1.4 1.7 1 2.4 3.2 1.4 5-1 1.8-3.2 2.4-5 1.4-1.8-1-2.4-3.2-1.4-5zm106.9-58.3c1-1.8 3.2-2.4 5-1.4 1.8 1 2.4 3.2 1.4 5-1 1.8-3.2 2.4-5 1.4-1.8-1.1-2.4-3.3-1.4-5zm26.9-55.9c1-1.7 3.2-2.4 5-1.4 1.8 1 2.4 3.2 1.4 5-1 1.8-3.2 2.4-5 1.4-1.8-1-2.4-3.2-1.4-5zm-77.9-101c1-1.8 3.2-2.4 5-1.4 1.8 1 2.4 3.2 1.4 5-1 1.8-3.2 2.4-5 1.4-1.7-1.1-2.3-3.3-1.4-5zm101.8-33.3c1-1.8 3.2-2.4 5-1.4 1.8 1 2.4 3.2 1.4 5-1 1.8-3.2 2.4-5 1.4-1.8-1-2.4-3.3-1.4-5zM1104.6 814c1-1.8 3.2-2.4 5-1.4 1.8 1 2.4 3.2 1.4 5-1 1.8-3.2 2.4-5 1.4-1.8-1-2.4-3.2-1.4-5zM913 425.5c1-1.8 3.2-2.4 5-1.4 1.7 1 2.4 3.2 1.4 5-1 1.7-3.2 2.4-5 1.4-1.7-1-2.4-3.2-1.4-5zm58.2 76.7c1-1.7 3.2-2.4 5-1.4 1.8 1 2.4 3.2 1.4 5-1 1.7-3.2 2.4-5 1.4-1.8-1-2.4-3.2-1.4-5zm-60.9 137.5c1-1.8 3.2-2.4 5-1.4 1.8 1 2.4 3.2 1.4 5-1 1.8-3.2 2.4-5 1.4-1.8-1-2.4-3.2-1.4-5zm112.5 49.2c1-1.8 3.2-2.4 5-1.4 1.8 1 2.4 3.2 1.4 5-1 1.8-3.2 2.4-5 1.4-1.8-1.1-2.4-3.3-1.4-5zm115.3 15.7c1-1.8 3.2-2.4 5-1.4 1.7 1 2.4 3.2 1.4 5-1 1.8-3.2 2.4-5 1.4-1.7-1-2.4-3.3-1.4-5zm55 88c1-1.8 3.2-2.4 5-1.4 1.8 1 2.4 3.2 1.4 5-1 1.8-3.2 2.4-5 1.4-1.8-1.1-2.4-3.3-1.4-5zm58.8-9.9c1-1.7 3.2-2.4 5-1.4 1.8 1 2.4 3.2 1.4 5-1 1.8-3.2 2.4-5 1.4-1.8-1-2.4-3.2-1.4-5zm-70.4-217.6c1-1.8 3.2-2.4 5-1.4 1.8 1 2.4 3.2 1.4 5-1 1.8-3.2 2.4-5 1.4-1.8-1.1-2.4-3.3-1.4-5zm16 21.9c1-1.7 3.2-2.4 5-1.4 1.7 1 2.4 3.2 1.4 5-1 1.7-3.2 2.4-5 1.4-1.8-1-2.4-3.3-1.4-5zm-80 30c1-1.7 3.2-2.4 5-1.4 1.8 1 2.4 3.2 1.4 5-1 1.8-3.2 2.4-5 1.4-1.8-1.1-2.4-3.3-1.4-5zm-112.6-180c1-1.8 3.2-2.4 5-1.4 1.7 1 2.4 3.2 1.4 5-1 1.8-3.2 2.4-5 1.4-1.8-1-2.4-3.2-1.4-5zm157 53.9c1-1.8 3.2-2.4 5-1.4 1.8 1 2.4 3.2 1.4 5-1 1.8-3.2 2.4-5 1.4-1.8-1-2.4-3.3-1.4-5zm-145.6 312.4c1-1.8 3.2-2.4 5-1.4 1.8 1 2.4 3.2 1.4 5-1 1.8-3.2 2.4-5 1.4-1.8-1-2.4-3.2-1.4-5zM793.5 373.7c1-1.7 3.2-2.4 5-1.4 1.7 1 2.4 3.2 1.4 5-1 1.8-3.2 2.4-5 1.4-1.8-1-2.4-3.2-1.4-5zM732 468c1-1.8 3.2-2.4 5-1.4 1.8 1 2.4 3.2 1.4 5-1 1.8-3.2 2.4-5 1.4-1.8-1-2.4-3.3-1.4-5zm159.8 11.7c1-1.7 3.2-2.4 5-1.4 1.7 1 2.4 3.2 1.4 5-1 1.8-3.2 2.4-5 1.4-1.8-1.1-2.4-3.3-1.4-5zm104.4 301.6c1-1.8 3.2-2.4 5-1.4 1.8 1 2.4 3.2 1.4 5-1 1.8-3.2 2.4-5 1.4-1.7-1-2.3-3.2-1.4-5zm-84.8-66c1-1.7 3.2-2.4 5-1.4 1.8 1 2.4 3.2 1.4 5-1 1.8-3.2 2.4-5 1.4-1.7-1-2.3-3.3-1.4-5z"/><path class="st0" d="M1141.3 706.4h-.1l-33.6 109.3v.1l100.9 68.7v.2l.1-.1.4.3-.1-.4 106.3-58.6.4-.2-119.1-31.5-54.9-87.9-.3.1zm-33.4 109.2l33.4-108.7 66.8 177-100.2-68.3zm100.2 67.2l-66-174.8 54 86.4 12 88.4zm-11.6-88.2l118.1 31.2-105.9 58.3-12.2-89.5z"/><path class="st0" d="M1141.3 706.2L1026 690.5h-.2l-26.6 92.7-.1.4 142.2-76.9L1314.9 826l.2-.3-173.7-119.3-.1-.2zm-115.2-15.4l114.6 15.7-141 76.3 26.4-92z"/><path class="st0" d="M999.5 783l-.6-.2 20.5 22.8v.1l88.2 10.2.1-.4L999.5 783zm.5.5l105.7 31.8-86.1-9.9-19.6-21.9zm120.6-165l-.1.1 20.7 87.8.1.5 60-118.9-80.7 30.5zm.2.3l79.7-30.1-59.2 117.2-20.5-87.1z"/><path class="st0" d="M876 529.9l-87-8.4-.1.3 331.6 97 1 .4-147-115.3-.1-.1-98.4 26.1zm.6.2l97.7-25.9 145.3 114-243-88.1zm-.7.2l239.3 86.7-324.4-95 85.1 8.3z"/><path class="st0" d="M788.1 557.5l1.1-35.8v-.3l-170 89.1.1.3L787.7 558l-3.8 123.9v.7l92.3-152.4.2-.4-88.3 27.7zm-.1.4l87.5-27.5-91.3 150.8 3.8-123.3zm-166.9 52L788.8 522l-1.1 35.6-166.6 52.3z"/><path class="st0" d="M1120.5 618.5l-206.9 22.8L876.1 530l-.2-.6-24.8 114.3v.2l62.3-2.2 35.5 58.6-35 16.7-.3.1 85.7 66.2.8.6-46.1-76 72.1-17.1 94.7-71.9 1.4-1.1-.2.1 63.1-50.5 69.8 217.2.3-.1-53.9-195.3 140.4 180.9.3-.2-141-181.6-.5-.7 52.1 188.8-67.3-209.3-.1-.2-64.7 51.6zm-206.7 23.2l205.8-22.7-170.3 81.1-35.5-58.4zm40 65.9l-4.3-7.1 169.7-80.8-93.2 70.8-72.2 17.1zm-102.3-64.1L876 530.8l37.2 110.6-61.7 2.1zm64.1 73.1l33.6-16 4.3 7-37.9 9zm-1.2.7l39.2-9.3 45.2 74.5-84.4-65.2z"/><path class="st0" d="M1185.3 567.2l-43.8 139.1 201.2 63.8-.8.1-145.6 24.3-.1-.3 144.9-24.3-200-63.4v-.2l43.9-139.2zM1008 438.7l.1.3-218.8 82.7 124.1 119.5 61-137.7.1.5 51.7 186.6-.4.1-51.5-186.2-60.7 137.3-.2-.2-124.7-120 .2-.1z"/><path class="st0" d="M982.2 488.4l-65.6-61.7-.2-.2L875.8 530l.3.1 40.4-102.9 57.7 76.9.2.2 7.9-15.3 139.2 130.8-113.3-181.1-.2-.3-25.8 50zm.3.3l25.6-49.5 111.6 178.5-137.2-129zm-8.2 15l-56.5-75.2 64.2 60.3-7.7 14.9z"/><path class="st0" d="M789 521.5l-150.6-55.3-.1.1-.1-.1-63.5 50.3-.3.2 212.5 41 1 .2-148-90.8 149 54.7 185.4-17.7v-.3L789 521.5zm-213.7-4.9l63.1-50 147.8 90.7-210.9-40.7zM1366 636.5l-.4.2-224.2 69.9-.1-.4 223.7-69.7-180-69.2L1008 439l.2-.3 177 128.3z"/><path class="st0" d="M1165.1 491.5l-.1.2-44.2 127.1-.3-.1 44.1-126.8-190.2 12.3-.1-.4zm-526.9-25.6l.3.4 145.7 215.5-.3.2-145.4-215.1-19.1 143.8h-.4z"/><path class="st0" d="M638.5 467.5h.1l97.2 2.2v.1l-97-2.1"/><path class="st0" d="M735.1 469.8l.1-.2 61.3-95.4.1.1-61.1 95.2"/><path class="st0" d="M790 520l-.3-.4-54.7-49.9.3-.2 54.4 49.5 6.7-144.9h.4z"/><path class="st0" d="M796.5 374.1l.2.2L895 481.5l-.2.1-98.1-107"/></svg>