<svg xmlns="http://www.w3.org/2000/svg" viewBox="0 0 2067.8 989"><path d="M1812.1 619.8c-1.1-1-2.7-.9-3.7.2-.2.2-.3.4-.4.7l-48.8-17.7c.2-.9 0-1.9-.7-2.6-1.1-1-2.7-.9-3.7.2-.2.3-.4.6-.5.9l-80.1-20.8c.1-.8-.2-1.6-.8-2.1-.2-.2-.5-.4-.7-.5l18.4-56.9c.9.2 1.8-.1 2.5-.8 1-1.1.9-2.7-.2-3.7s-2.7-.9-3.7.2c-.1.2-.3.3-.4.5l-100.4-29.8c.1-.8-.2-1.7-.8-2.3-.3-.3-.6-.4-.9-.5l12.9-51.5c.8.1 1.7-.1 2.3-.8 1-1.1.9-2.7-.2-3.7s-2.7-.9-3.7.2c-.7.8-.8 1.9-.5 2.8l-48.7 25.8c-.1-.2-.2-.3-.4-.5-.8-.8-2-.9-2.9-.4l-54.2-73.3 17.2-29c1 .5 2.3.3 3-.6 1-1.1.9-2.7-.2-3.7s-2.7-.9-3.7.2-.9 2.7.2 3.7c.1.1.2.1.2.2l-17.1 28.8-63.3-85.5.2-.2c1-1.1.9-2.7-.2-3.7s-2.7-.9-3.7.2-.9 2.7.2 3.7c.6.5 1.4.7 2.1.6l21 95.8c-.5.1-1 .4-1.3.8-.1.2-.3.3-.4.5v.1c-.1.2-.2.4-.2.6l-138.4-14.1c0-.6-.3-1.3-.8-1.7-.1-.1-.3-.2-.4-.3l48.4-95.2c1 .4 2.1.2 2.9-.6.2-.3.4-.6.5-.9l18.9 6.4c-.3.9 0 1.8.6 2.5 1 1 2.6 1 3.6 0s1-2.6 0-3.6-2.6-1-3.6 0c-.2.2-.3.4-.4.6l-19-6.4c.1-.5 0-1-.2-1.5l17.3-17.4c1 .7 2.4.6 3.3-.3 1-1 1-2.6 0-3.6s-2.6-1-3.6 0-1 2.5 0 3.5l-17.2 17.3c-.1-.1-.2-.2-.3-.4-.4-.4-.9-.6-1.4-.7l-16.7-58.3c.3-.1.7-.3.9-.6 1-1 1-2.6 0-3.6s-2.6-1-3.6 0-1 2.6 0 3.6c.6.6 1.4.8 2.2.7l16.7 58.1c-.6 0-1.3.3-1.7.8-.5.5-.7 1.2-.7 1.9l-179.4 26.3c-.1-.5-.4-.9-.7-1.3l-.1-.1 87.9-126.6c1 .6 2.4.4 3.2-.5 1-1.1.9-2.7-.1-3.7-1.1-1-2.7-.9-3.7.1-1 1.1-.9 2.7.1 3.7l.1.1-87.9 126.6s-.1 0-.1-.1l47.4-118.5c1 .3 2.1.1 2.8-.7 1-1.1.9-2.7-.1-3.7-1.1-1-2.7-.9-3.7.1-1 1.1-.9 2.7.1 3.7.1.1.3.2.5.3l-47.4 119c-.1 0-.2-.1-.3-.1l1.3-65.2c.7 0 1.3-.3 1.8-.8 1-1.1.9-2.7-.1-3.7-1.1-1-2.7-.9-3.7.1-.3.3-.5.6-.6 1l-36.6-7c.2-.8-.1-1.8-.8-2.4 0 0-.1 0-.1-.1l42.2-59c1 .7 2.4.5 3.3-.4 1-1.1.9-2.7-.1-3.7-1.1-1-2.7-.9-3.7.1-.6.6-.8 1.5-.6 2.3l-71.4 15.2c-.1-.4-.4-.8-.7-1.2-.9-.8-2.1-.9-3.1-.3L1045 105c.1-.1.2-.1.2-.2.9-1 .9-2.6 0-3.5l19.3-18.1c1 .8 2.5.7 3.4-.2 1-1 1-2.6 0-3.6s-2.6-1-3.6 0c-.9 1-1 2.5-.1 3.5l-19.3 18.1c-.3-.2-.7-.4-1-.4l.1-68.8c.5-.1 1-.3 1.3-.7 1-1 1-2.6 0-3.6s-2.6-1-3.6 0-1 2.6 0 3.6c.5.5 1.1.7 1.8.7l-.1 68.7c-.6 0-1.2.2-1.7.7L1021 90c.5-1 .3-2.2-.5-3-1-1-2.6-1-3.6 0s-1 2.6 0 3.6 2.6 1 3.6 0c.1-.1.1-.2.2-.2l20.5 11.1c-.8 1.1-.6 2.5.3 3.4.2.2.4.3.7.4l-18.1 48.6c-.8-.2-1.7 0-2.3.5l-30.5-34.5c.8-1 .8-2.5-.2-3.5s-2.6-1-3.6 0-1 2.6 0 3.6c.9.9 2.4 1 3.4.2l30.5 34.5c-.4.4-.6.9-.6 1.5l-19.5 4.5c-.1-.3-.3-.6-.6-.9-1-1-2.6-1-3.6 0s-1 2.6 0 3.6 2.6 1 3.6 0c.6-.6.8-1.5.7-2.3l19.4-4.5c.1.6.3 1.1.8 1.6.3.2.6.4.9.5l-21.4 79.9c-.8-.1-1.6.2-2.1.8-.2.2-.4.5-.5.7l-56.8-18.9c.2-.9 0-1.9-.8-2.5-.3-.3-.7-.5-1.1-.6l2.6-41.7c.7 0 1.3-.3 1.8-.8 1-1 1-2.6 0-3.6s-2.6-1-3.6 0-1 2.6 0 3.6c.4.4.8.6 1.3.7l-2.6 41.7c-.6-.1-1.3.1-1.8.5l-65.6-36.7c.3-.9.1-2-.6-2.7-1-1-2.6-1-3.6 0s-1 2.6 0 3.6 2.6 1 3.6 0c.1-.1.3-.3.4-.5l65.4 36.6c-.9 1.1-.9 2.7.2 3.6.2.2.3.3.5.4l-30.7 100.1c-.8-.1-1.7.2-2.3.8-.3.3-.4.6-.6.9l-51.4-13.4c.1-.8-.1-1.7-.8-2.3-.4-.4-.9-.6-1.4-.7l-8.9-68.2c.5-.1 1-.3 1.4-.7 1-1 1-2.6 0-3.6s-2.6-1-3.6 0-1 2.6 0 3.6c.5.5 1.1.7 1.7.7l8.9 68.2c-.4 0-.7.1-1 .3L830 285c.7-1 .6-2.4-.3-3.3-1-1-2.6-1-3.6 0s-1 2.6 0 3.6 2.5 1 3.5 0l19 23.4c-.1.1-.2.2-.4.3-.3.3-.5.7-.6 1.1l-28.2-4.7c.1-.8-.1-1.6-.7-2.2-1-1-2.6-1-3.6 0s-1 2.6 0 3.6 2.6 1 3.6 0c.3-.3.4-.6.6-.9L848 311c-.1.8.2 1.5.8 2.1.8.7 1.8.9 2.8.5l25.4 48.9c-.2.1-.3.2-.5.4-.8.8-.9 2-.4 2.9l-73.7 53.6-28.9-17.4c.5-1 .3-2.3-.6-3.1-1.1-1-2.7-.9-3.7.1-1 1.1-.9 2.7.1 3.7 1.1 1 2.7.9 3.7-.1.1-.1.1-.2.2-.2l28.7 17.4-86 62.6-.2-.2c-.1-.1-.2-.2-.4-.3L783 344c.1 0 .2.1.3.1 1.2.3 2.3-.3 2.9-1.3l17.2 7.3c-.3.9-.1 1.9.6 2.6 1 1 2.6 1 3.6 0s1-2.6 0-3.6-2.6-1-3.6 0c-.2.2-.3.4-.4.6l-17.2-7.3c0-.1 0-.1.1-.2.1-.5.1-1.1-.1-1.6l14.4-9.9s0 .1.1.1c1 1 2.6 1 3.6 0s1-2.6 0-3.6-2.6-1-3.6 0c-.8.9-.9 2.1-.3 3.1l-14.3 9.8c-.4-.5-.9-1-1.6-1.1-.2 0-.3-.1-.5-.1l-4.7-68.4c.4-.1.9-.3 1.2-.7 1-1 1-2.6 0-3.6s-2.6-1-3.6 0-1 2.6 0 3.6c.5.5 1.2.8 1.9.7l4.7 68.4c-1 .1-1.9.9-2.2 2-.1.5-.1 1 .1 1.4L654 397.7c-.4-.5-.9-.9-1.6-1.1-.2 0-.3-.1-.5-.1l-4.3-106.7c1-.1 1.9-.9 2.2-2 .2-.8 0-1.5-.4-2.1l27-17.8c1 1 2.6 1 3.6 0s1-2.6 0-3.6-2.6-1-3.6 0c-.9.9-1 2.3-.3 3.2l-27 17.8c-.3-.3-.7-.6-1.2-.7-.1 0-.3 0-.4-.1l-2.4-58.9c.5-.1.9-.3 1.3-.7 1-1 1-2.6 0-3.6s-2.6-1-3.6 0-1 2.6 0 3.6c.5.5 1.2.7 1.8.7l2.4 58.9c-.7.1-1.4.5-1.8 1l-15.1-6c.2-.8 0-1.7-.7-2.4-1-1-2.6-1-3.6 0s-1 2.6 0 3.6 2.6 1 3.6 0c.2-.2.4-.5.5-.8l15 6c-.1.2-.1.3-.2.5-.2.7 0 1.4.3 2L501.4 399.3c-.3-.3-.8-.6-1.3-.7h-.1l14.8-153.4c1.2 0 2.3-.8 2.6-2 .3-1.4-.5-2.8-1.9-3.1-1.4-.3-2.8.5-3.1 1.9-.3 1.4.5 2.8 1.9 3.1h.1l-14.8 153.4h-.1L482.8 272c1-.2 1.8-.9 2.1-2 .3-1.4-.5-2.8-1.9-3.1-1.4-.3-2.8.5-3.1 1.9-.3 1.4.5 2.8 1.9 3.1.2 0 .4.1.6.1L499 398.6c-.1 0-.2 0-.3.1l-30.8-57.5c.6-.3 1-.9 1.2-1.6.3-1.4-.5-2.8-1.9-3.1-1.4-.3-2.8.5-3.1 1.9-.1.4-.1.8 0 1.1l-35.4 11.8c-.3-.8-.9-1.5-1.8-1.7h-.1l8-72.2c1.2.1 2.4-.7 2.7-2 .3-1.4-.5-2.8-1.9-3.1-1.4-.3-2.8.5-3.1 1.9-.2.8 0 1.7.6 2.3L378 324.6c-.3-.3-.7-.5-1.2-.7-1.1-.3-2.3.3-2.8 1.2l-84.5-40.6c0-.1.1-.2.1-.3.3-1.4-.5-2.8-1.9-3.1-1.4-.3-2.8.5-3.1 1.9-.3 1.4.5 2.8 1.9 3.1.3.1.5.1.8.1l8 51.2c-.9.2-1.7.9-1.9 1.9-.3 1.4.5 2.8 1.9 3.1.3.1.7.1 1 0l20.4 80.2c-.7.3-1.3.9-1.5 1.8-.1.3-.1.6 0 .9l-58.7 11.3c-.2-.9-.9-1.6-1.9-1.8-1.4-.3-2.8.5-3.1 1.9-.3 1.4.5 2.8 1.9 3.1.2.1.4.1.6.1l22.2 102.3c-.8.3-1.4 1-1.6 1.8-.1.4-.1.7 0 1.1l-51.4 13.5c-.3-.8-1-1.4-1.8-1.6-1.4-.3-2.8.5-3.1 1.9-.3 1.4.5 2.8 1.9 3.1 1 .2 2-.2 2.6-.9l46 30.2c-.1.2-.2.4-.2.6-.3 1.1.2 2.2 1.1 2.8l-38.1 82.8-33.7-1.1c-.1-1.1-.8-2.1-2-2.4-1.4-.3-2.8.5-3.1 1.9-.3 1.4.5 2.8 1.9 3.1 1.4.3 2.8-.5 3.1-1.9v-.3l33.5 1.1-44.3 96.8c-.1 0-.2-.1-.3-.1-1.4-.3-2.8.5-3.1 1.9-.3 1.4.5 2.8 1.9 3.1 1.4.3 2.8-.5 3.1-1.9.2-.8 0-1.5-.4-2.1l73.9-64.6c.3.4.8.7 1.4.8 1.4.3 2.8-.5 3.1-1.9.1-.5.1-1-.1-1.5l45.8-18.1c.3.7.9 1.2 1.7 1.4.6.1 1.1.1 1.6-.1l16.5 25.8c-.5.3-.8.8-1 1.4-.3 1.4.5 2.8 1.9 3.1l-9.1 52.4c-1.3-.1-2.4.7-2.7 2-.3 1.4.5 2.8 1.9 3.1 1.4.3 2.8-.5 3.1-1.9.2-1-.2-2.1-.9-2.7l54.8-85c.2.1.4.2.6.2.6.1 1.2.1 1.7-.2l27.8 49.4c-.5.4-.9.9-1.1 1.5-.3 1.4.5 2.8 1.9 3.1 1.4.3 2.8-.5 3.1-1.9.3-1.4-.5-2.8-1.9-3.1-.6-.1-1.2-.1-1.7.2l-27.8-49.4 56.5 66.9c-.3.3-.6.7-.7 1.2-.3 1.4.5 2.8 1.9 3.1 1.4.3 2.8-.5 3.1-1.9.3-1.4-.5-2.8-1.9-3.1-.8-.2-1.5 0-2.1.4L383 689.4c.3-.3.6-.7.7-1.2.1-.4.1-.7 0-1.1l32.8-9.5c.3.8 1 1.4 1.8 1.6 1.4.3 2.8-.5 3.1-1.9.3-1.4-.5-2.8-1.9-3.1-1.4-.3-2.8.5-3.1 1.9-.1.4-.1.8 0 1.1l-32.8 9.5c-.3-.8-1-1.4-1.8-1.6-.5-.1-1.1-.1-1.6.1L338 599.7c.6-.3 1-.9 1.2-1.6 0-.2.1-.3.1-.5l34.1-.9c.1 1.1.9 2 2 2.2 1.4.3 2.8-.5 3.1-1.9.3-1.3-.4-2.5-1.5-3l10.6-32.1c1.4.3 2.8-.5 3.1-1.9.1-.3.1-.7 0-1l29.3-7.2c.3.8.9 1.5 1.8 1.7.7.2 1.3 0 1.9-.3l5.2 7.3c-.1.1-.2.3-.4.4-.8 1.2-.4 2.8.9 3.6 1.2.8 2.8.4 3.6-.9.8-1.2.4-2.8-.9-3.6-.9-.6-2.1-.5-2.9.1l-5.1-7.2c.4-.3.8-.8.9-1.4 0-.2.1-.4.1-.6l30.8-2.2c.1.7.5 1.4 1.2 1.9 1.2.8 2.8.4 3.6-.9.8-1.2.4-2.8-.9-3.6-1.2-.8-2.8-.4-3.6.9-.2.4-.4.8-.4 1.3l-30.8 2.2c-.1-.8-.6-1.4-1.3-1.8l22.7-49.3c.2.1.4.2.7.3 1.2.3 2.4-.3 2.9-1.4l62.1 22.4v.1c-.3 1.4.5 2.8 1.9 3.1 1.4.3 2.8-.5 3.1-1.9.3-1.4-.5-2.8-1.9-3.1h-.4l.5-42.1c1-.1 1.8-.8 2.1-1.7L619 496.3c-.1.4 0 .8.1 1.2l-52.6 30c-.3-.4-.8-.7-1.4-.9-1.4-.3-2.8.5-3.1 1.9-.3 1.4.5 2.8 1.9 3.1.9.2 1.7 0 2.3-.6l29.5 24.9-7.9 18.3c-.1 0-.1-.1-.2-.1-1.4-.3-2.8.5-3.1 1.9-.3 1.4.5 2.8 1.9 3.1.4.1.8.1 1.2 0l5 25.1c-1.1.3-1.9 1.3-1.9 2.5 0 1.4 1.2 2.6 2.6 2.6 1.4 0 2.6-1.2 2.6-2.6 0-1.4-1.2-2.6-2.6-2.6h-.2l-5.1-25.2c.1 0 .1-.1.2-.1l26.7 43.7c-.6.5-1 1.2-1 2 0 1.4 1.2 2.6 2.6 2.6 1.4 0 2.6-1.2 2.6-2.6 0-1.4-1.2-2.6-2.6-2.6-.5 0-.9.1-1.3.3l-26.7-43.7c.4-.3.8-.8.9-1.4.1-.5.1-1.1-.1-1.6l18.5-9.4 55.4 46.8c-.2.3-.3.6-.4.9-.3 1.4.5 2.8 1.9 3.1 1.4.3 2.8-.5 3.1-1.9.3-1.4-.5-2.8-1.9-3.1h-.3l2.7-74.1c1.1-.1 2.1-.8 2.4-2 .3-1.4-.5-2.8-1.9-3.1-.3-.1-.7-.1-1 0l-9.3-41 52.8-7.1c.1.5.4.9.8 1.3.1.1.3.2.5.3.1 0 .2.1.2.1.1 0 .2.1.3.1.1 0 .1.1.2.1.6.1 1.2.1 1.7-.2l48.6 89.1c-.3.2-.6.5-.8.8-.7 1.2-.4 2.8.9 3.6 1.2.8 2.8.4 3.6-.9.8-1.2.4-2.8-.9-3.6-.8-.5-1.6-.5-2.4-.2L715.4 486c.2-.1.3-.2.4-.4l39.4 28.4c-.7 1.2-.3 2.8.9 3.5 1.2.8 2.8.4 3.6-.9.8-1.2.4-2.8-.9-3.6-1.1-.7-2.5-.4-3.3.5l-39.4-28.4 59.2 29.7c-.5 1.2 0 2.5 1.1 3.2 1.2.7 2.8.4 3.6-.9.8-1.2.4-2.8-.9-3.6-1.2-.7-2.8-.4-3.6.9l-59.2-29.7c.1-.1.1-.3.2-.4.1-.3.1-.6 0-1l96-20.2c.1.5.4 1 .8 1.4 1.1 1 2.7.9 3.7-.1.4-.4.6-.9.7-1.4l48.8 6.6c0 .7.2 1.5.8 2 .4.4.9.6 1.5.7l1.7 30.6c-.6.1-1.1.3-1.5.8-1 1-.9 2.6.1 3.6l-33.6 41.3c-1-.7-2.5-.6-3.4.4-1 1.1-.9 2.7.1 3.7 1.1 1 2.7.9 3.7-.1.7-.8.9-1.9.5-2.8l89.4-47.4c.1.2.2.4.4.5.4.4 1 .6 1.5.7l.1 56.7c-.6.1-1.2.3-1.7.8-1 1.1-.9 2.7.1 3.7 1.1 1 2.7.9 3.7-.1 1-1.1.9-2.7-.1-3.7-.4-.4-1-.6-1.5-.7l-.1-56.7 16.6 86c-.4.1-.9.4-1.2.7-1 1.1-.9 2.7.1 3.7 1.1 1 2.7.9 3.7-.1 1-1.1.9-2.7-.1-3.7-.6-.5-1.3-.7-2-.7l-16.6-86c.4-.1.9-.4 1.2-.7.3-.3.4-.6.6-1l33.3 7.8c-.1.8.2 1.7.8 2.3 1.1 1 2.7.9 3.7-.1 1-1.1.9-2.7-.1-3.7-1.1-1-2.7-.9-3.7.1-.3.3-.4.6-.6 1l-33.3-7.8c.1-.8-.2-1.7-.8-2.3-.4-.4-.9-.6-1.4-.7l5-95.2c.7 0 1.3-.3 1.8-.8.1-.1.2-.2.3-.4l30.2 15.9c-.4 1-.2 2.1.6 2.9 1.1 1 2.7.9 3.7-.1.9-.9.9-2.4.2-3.3l24.9-22.8c1.1 1 2.7.9 3.7-.1.2-.3.4-.5.5-.9l29.1 8.1c-.2.8.1 1.8.8 2.4.5.5 1.1.7 1.8.7l1 8.9c-.2.1-.4.1-.5.2-1.3.7-1.7 2.3-1 3.5.7 1.3 2.3 1.7 3.5 1 1.3-.7 1.7-2.3 1-3.5-.5-.9-1.6-1.4-2.6-1.3l-1-8.8c.5-.1 1.1-.4 1.5-.8.1-.1.2-.3.3-.5l28 13.1c-.3.7-.3 1.5.1 2.2.7 1.3 2.3 1.7 3.5 1 1.3-.7 1.7-2.3 1-3.5-.7-1.3-2.3-1.7-3.5-1-.4.2-.7.6-.9.9l-28-13.1c.3-.7.2-1.6-.2-2.2l44-31.9c.1.2.3.4.5.6.9.8 2.3.9 3.3.2l43.2 49.9c-1 1.1-.9 2.7.1 3.7 1.1 1 2.7.9 3.7-.1 1-1.1.9-2.7-.1-3.7-.1-.1-.2-.1-.3-.2l21-36.5c.9.4 1.9.2 2.7-.5l78 68.2c-.2.3-.4.7-.5 1.1l-60.6.4c-.1-.5-.4-1-.8-1.4-1.1-1-2.7-.9-3.7.1-1 1.1-.9 2.7.1 3.7.6.6 1.5.8 2.3.6l13.6 36.2-15.8 12.1c0-.1-.1-.1-.1-.2-1.1-1-2.7-.9-3.7.1-.6.7-.8 1.6-.6 2.4l-103 23.6c-.1-.4-.3-.7-.6-1-1-1-2.6-1-3.6 0s-1 2.6 0 3.6 2.6 1 3.6 0c.6-.6.8-1.4.7-2.1l103-23.6c.1.3.3.6.6.8.3.3.7.5 1.1.6l-7.9 24.4c-1.1-.3-2.3.2-2.9 1.2-.7 1.3-.2 2.8 1 3.5 1.3.7 2.8.2 3.5-1 .7-1.3.2-2.8-1-3.5-.1 0-.1-.1-.2-.1l7.9-24.5h.2l1.9 51.2c-.7.1-1.4.6-1.8 1.3-.7 1.3-.2 2.8 1 3.5 1.3.7 2.8.2 3.5-1 .7-1.3.2-2.8-1-3.5-.4-.2-.8-.3-1.3-.3l-1.9-51.2c.6-.1 1.1-.3 1.5-.8.4-.4.6-.9.7-1.4l20.8.8 25.4 67.9c-.3.1-.6.3-.8.6-1 1.1-.9 2.7.1 3.7 1.1 1 2.7.9 3.7-.1 1-1.1.9-2.7-.1-3.7-.1-.1-.2-.1-.2-.2l38.5-63.3c1 .5 2.3.3 3.1-.6 1-1.1.9-2.7-.1-3.7-.2-.2-.5-.4-.8-.5l11.9-40.4 49.6 19.6c-.3.9 0 2 .7 2.6.4.4 1 .6 1.5.7l-1.2 101.5c-.4 0-.7.1-1.1.3-1.3.7-1.7 2.3-1 3.5.7 1.3 2.3 1.7 3.5 1 1.3-.7 1.7-2.3 1-3.5-.4-.8-1.2-1.2-2-1.3l1.2-101.5c.2 0 .4-.1.5-.1l20.5 44.1c-1.2.7-1.7 2.3-1 3.5.7 1.3 2.3 1.7 3.5 1 1.3-.7 1.7-2.3 1-3.5-.6-1.1-2-1.6-3.2-1.2l-20.5-44 37.1 54.8c-1 .8-1.3 2.2-.6 3.3.7 1.3 2.3 1.7 3.5 1 1.3-.7 1.7-2.3 1-3.5-.7-1.3-2.3-1.7-3.5-1l-37.1-54.8.3-.3c.8-.9.9-2.1.3-3l44.8-30.9 44.5 53.4c-.1 0-.1.1-.2.1-.4.4-.6 1-.7 1.6v.4l.1.4c0 .1.1.1.1.2l-14.8 8.2c-.1-.2-.2-.4-.4-.6-1-.9-2.5-.9-3.4 0-.9 1-.9 2.5 0 3.4 1 .9 2.5.9 3.4 0 .7-.7.8-1.6.6-2.4l14.8-8.2c.1.2.3.4.5.6.3.3.6.4 1 .5l-7.5 33.3c-.8-.1-1.7.2-2.3.8-1 1.1-.9 2.7.2 3.7s2.7.9 3.7-.2.9-2.7-.2-3.7c-.3-.3-.6-.4-1-.5l7.5-33.3c.8.1 1.7-.2 2.3-.8.4-.4.6-.9.7-1.4l95.2 4.2c0 .7.3 1.3.8 1.8.1.1.2.2.4.3l-15.6 30.3c-1-.4-2.2-.2-2.9.6-.4.5-.6 1-.7 1.6l-48.3 3.2c-.1-.5-.3-1-.7-1.4-1-1-2.6-1-3.6 0s-1 2.6 0 3.6 2.6 1 3.6 0c.5-.5.7-1.1.7-1.7l48.3-3.2c.1.6.3 1.1.8 1.6l.2.2-17.4 24c-1-.8-2.5-.8-3.4.2-1 1-1 2.6 0 3.6s2.6 1 3.6 0c.9-.9 1-2.4.2-3.4l17.5-24.1c.9.4 1.9.3 2.7-.3l23 24.8c-1 1.1-.9 2.7.2 3.7.3.2.6.4.9.5l-7.8 29.2c-.8-.2-1.8.1-2.4.8-.5.5-.7 1.1-.7 1.8l-8.8 1c-.1-.2-.1-.4-.2-.5-.7-1.2-2.3-1.7-3.5-1-1.2.7-1.7 2.3-1 3.5.7 1.2 2.3 1.7 3.5 1 .9-.5 1.4-1.6 1.3-2.6l8.8-1c.1.5.4 1.1.8 1.5.1.1.3.2.5.3l-12.9 28.1c-.7-.3-1.5-.2-2.2.2-1.2.7-1.7 2.3-1 3.5.7 1.2 2.3 1.7 3.5 1 1.2-.7 1.7-2.3 1-3.5-.2-.4-.6-.7-.9-.9l12.9-28.1c.7.3 1.6.2 2.2-.2l32.3 43.7c-.2.1-.4.3-.6.5-.8.9-.9 2.3-.2 3.3l-49.5 43.7c-1.1-1-2.7-.9-3.7.2s-.9 2.7.2 3.7 2.7.9 3.7-.2c.1-.1.1-.2.2-.3l36.6 20.7c-.4.9-.2 1.9.5 2.7l.3.3c.5.4 1 .5 1.6.5l5.9 39.6c-.5.1-1 .4-1.3.8-.7.8-.9 1.9-.5 2.8l.2.4c.1.2.3.4.4.5.7.6 1.5.8 2.3.6l12.8 47.4c-.4.1-.7.4-1 .7-.2.3-.4.6-.5.9l-.1.4c-.1.5 0 1 .2 1.5l.2.4c.1.1.2.3.4.4.2.2.4.3.7.4l-19.1 53.7c-.9-.2-1.9 0-2.6.8-.5.5-.7 1.2-.7 1.9l.1.4c.1.5.4 1 .8 1.4.4.4 1 .6 1.5.7h.5c.6-.1 1.3-.3 1.7-.8.1-.1.2-.3.3-.4l95.6 47.6c-.4 1-.2 2.1.7 2.9 1.1 1 2.7.9 3.7-.2s.9-2.7-.2-3.7c-.5-.5-1.2-.7-1.9-.7L1606 753.9c.5-.1.9-.4 1.3-.8l.1-.1 127.3 86.8c-.6 1-.4 2.4.5 3.2 1.1 1 2.7.9 3.7-.2s.9-2.7-.2-3.7-2.7-.9-3.7.2l-.1.1-127.3-86.8s0-.1.1-.1l118.9 46.4c-.3 1-.1 2.1.7 2.8 1.1 1 2.7.9 3.7-.2s.9-2.7-.2-3.7-2.7-.9-3.7.2c-.1.2-.2.3-.3.5L1607.6 752c0-.1.1-.2.1-.3l65.2.7c0 .7.3 1.3.8 1.8 1.1 1 2.7.9 3.7-.2s.9-2.7-.2-3.7c-.3-.3-.6-.4-1-.6l6.7-36.7c.8.1 1.8-.1 2.4-.8 0 0 0-.1.1-.1l59.4 41.7c-.7 1-.5 2.5.4 3.3 1.1 1 2.7.9 3.7-.2s.9-2.7-.2-3.7c-.6-.6-1.5-.8-2.3-.6l-15.7-71.2c.4-.1.8-.4 1.1-.7.8-.9.9-2.1.3-3.1l76.2-54.5c.1.1.1.2.2.2 1.1 1 2.7.9 3.7-.2 1-.7 1-2.4-.1-3.3zm-1157.9-220c.1-.6.1-1.1-.2-1.6l127.6-55.4v.1l-112.1 80.3-16.2-22c.5-.4.8-.9.9-1.4zm-1.2 1.6l16.2 22-20.5 14.6c-.3-.4-.8-.6-1.3-.7-1.1-.3-2.3.3-2.8 1.2l-52-28.3c.1-.2.1-.3.2-.5.1-.3.1-.5.1-.8l56.3-9.2c.2.9.9 1.7 1.9 1.9.7.3 1.4.2 1.9-.2zm-99.8 43.7l35.4-34c.3.3.7.5 1.1.6.4.1.7.1 1.1 0l29.8 82.5c-.3.2-.6.4-.9.7l-66.1-46.8c.1-.2.2-.4.2-.6.2-.9 0-1.7-.6-2.4zm-.3-.3c-.3-.2-.6-.4-1-.5-.9-.2-1.7 0-2.4.6l-47.8-42.4c.2-.2.3-.5.3-.8v-.3l85.7 7.9c0 .5.2 1.1.6 1.5l-35.4 34zm38.3-33.2c.5-.2.9-.5 1.2-.9l52.1 28.3c0 .1-.1.2-.1.3-.3 1.1.2 2.2 1.1 2.8l-23.1 52h-.1c-.4-.1-.9-.1-1.3 0l-29.8-82.5zm54.6 30.7c.1.1.3.1.4.2.2.1.5.1.7.1l11.1 48.9-34 4.6c-.2-.8-.7-1.4-1.4-1.8l23.2-52zm.8-152.5c.2 0 .3.1.5.1l4.3 106.7c-1 .1-1.9.9-2.2 2-.1.3-.1.5-.1.8l-56.3 9.2c-.2-.7-.7-1.4-1.4-1.7l54.7-117.2c.2 0 .3.1.5.1zm-1.3-.7c.1.2.3.3.5.4L591 406.7h-.1c-1.4-.3-2.8.5-3.1 1.9v.3l-85.7-7.9c0-.5-.2-.9-.4-1.3l143.6-110.6zm-146 114.6h.6l14.6 67.9c-.7.2-1.3.7-1.6 1.3l-21.6-8.9c0-.1 0-.1.1-.2.3-1.4-.5-2.7-1.8-3.1l9.7-57zm-.4 0l-9.7 57c-.8-.1-1.6.2-2.1.7l-35.2-29.8c.2-.3.3-.6.4-.9.1-.6.1-1.2-.2-1.7l45.3-26.4c.3.5.8.9 1.5 1.1zm-70.2-51c.1-.3.1-.7 0-1l35.4-11.8c.3.8 1 1.4 1.8 1.6.5.1 1.1.1 1.5-.1l30.8 57.5c-.3.2-.5.4-.7.6l-69.1-46.1c.1-.2.2-.4.3-.7zm-.6 1.1l69.1 46.1-.3.6c-.1.6-.1 1.2.2 1.7l-45.3 26.4c-.4-.5-.9-.9-1.5-1-.4-.1-.8-.1-1.1 0l-22.1-73c.4-.2.8-.5 1-.8zm-1.4.9l22.1 73c-.7.3-1.2.8-1.5 1.5l-40.5-11.5c.2-1.2-.4-2.3-1.5-2.8l20.2-60.2h1.2zm-6.1 94.8l-48.2 46.3c-.3-.3-.7-.5-1.1-.6h-.3l2.2-54.5c1.1-.1 2.1-.8 2.4-2 .2-.7 0-1.3-.3-1.8l26.9-17.8c.3.4.8.7 1.3.8.6.1 1.2.1 1.7-.2l15.7 26.1c-.5.4-.9.9-1 1.5 0 .7.2 1.5.7 2.2zm-52.1 49.6l-51.9 43.8c-.2-.3-.5-.5-.9-.6l28-84.8c.6.1 1.1.1 1.6-.2l23.7 38.3c-.5.4-.8.9-1 1.5 0 .7.2 1.4.5 2zm-15.1 182.2v.3l-36.5-1.2 19.5-80.4c.3 0 .5.1.8 0l18 79.5c-.9.2-1.6.9-1.8 1.8zm1.9 3.2c1.3.3 2.7-.5 3.1-1.8l20.3 4.5c-.1.6 0 1.1.3 1.6l-43.3 28.9c-.1-.2-.3-.4-.5-.5l19.7-33c0 .2.2.2.4.3zm-38.9-4.1l-4.2-.1-10.6-37.3c.8-.3 1.4-1 1.6-1.8.2-.9-.1-1.9-.7-2.5l32.7-39.2.6.3-19.4 80.6zm-50.4-1.6l5-83.5c.4 0 .8-.1 1.2-.2l27 43.5c-.5.4-.9.9-1.1 1.5-.2.9.1 1.8.7 2.4l-30.5 36.4-2.3-.1zm2 .5l-2.1 2.5.2-2.6 1.9.1zm4.6-84.5c.5-.4.9-.9 1.1-1.5v-.2l60.4 4.5c0 .7.3 1.3.7 1.7L302 638.5c-.2-.2-.5-.3-.8-.4-.6-.1-1.2-.1-1.7.2l-26.9-43.5zm26.6 47.9c.3.2.6.3.9.4.4.1.7.1 1.1 0l10.5 37.1-42.8-1.4 30.3-36.1zm35-45.9v.2l-60.4-4.5c0-.7-.3-1.3-.8-1.8l40.2-44.1c.3.2.6.4 1 .5.5.1 1 .1 1.4-.1l20 48.1c-.7.4-1.2 1-1.4 1.7zm-18.1-102.1l27-37.6c.1.1.2.1.3.2l-28 84.8c-1.4-.3-2.8.5-3.1 1.9 0 .1 0 .3-.1.4l-32.4.3c0-.8-.4-1.5-1-1.9l34.2-43.9c.2.2.5.3.8.4 1.4.3 2.8-.5 3.1-1.9.2-1.1-.1-2.1-.8-2.7zm29.7-37.7c.5-.4.9-.9 1.1-1.6.3-1.4-.5-2.8-1.9-3.1-.8-.2-1.6 0-2.2.5l-23.2-25.9c.2-.2.4-.5.5-.8l50.4 11.6c-.2 1.3.7 2.5 2 2.8h.3l-2.2 54.5c-.4 0-.7.1-1.1.3L345.8 457zm-47.3-117.2l37.5-6.3 20.2 20.4c-.2.3-.4.6-.5 1-.3 1.1.2 2.1 1 2.7l-13.5 23.3-45.2-39.3c.2-.3.3-.6.4-.9.1-.3.1-.6.1-.9zm103.6 78.8l-26.9 17.8c-.3-.4-.8-.8-1.4-.9-.3-.1-.6-.1-.8-.1l-6-33.4 6.7 5.8c-.1.2-.2.4-.3.7-.3 1.4.5 2.8 1.9 3.1 1.4.3 2.8-.5 3.1-1.9.2-.8 0-1.6-.5-2.2l10.3-11.7 14.5 19.5c-.4.3-.7.8-.9 1.4-.2.7-.1 1.4.3 1.9zm-29.6 16.9c-.3.1-.6.2-.9.5l-34.4-43.8 6.2-10.6 23 20 6.1 33.9zm15.9-40l36.2-41.2c.2.1.3.2.5.3l-20.2 60.2c-.7-.2-1.4 0-1.9.3l-14.6-19.6zm-.3-.4L360 357.4c.4-.3.7-.8.8-1.3v-.4l62.8-3c.1.5.3.9.7 1.2l-36.2 41.2zm-.3.3l-10.3 11.8c-.3-.3-.7-.5-1.1-.6-.4-.1-.8-.1-1.2 0l-15.9-48.8c.1 0 .2-.1.3-.2l28.2 37.8zm-13 11.4c-.4.2-.7.4-1 .7l-7.1-6.1-7.8-43.1 15.9 48.5zm-8.6-5.9l-22.6-19.7 13.6-23.3c.2.1.3.1.5.2.3.1.6.1.8.1l7.7 42.7zM343 381.3l-6.1 10.5-39.2-49.9 45.3 39.4zm-6.1 11.3l34.3 43.7c-.2.3-.4.6-.6 1l-50.4-11.6c.2-1-.2-2-1-2.6l17.7-30.5zm96.2-115.8c.3.2.6.4 1 .5l-8 72.2c-.9 0-1.8.5-2.3 1.2l-45.4-23.3c0-.1.1-.2.1-.4.2-.8 0-1.5-.4-2.1l55-48.1zM375.6 329c1.1.3 2.2-.2 2.8-1.2l45.4 23.3c0 .1-.1.2-.1.4-.1.2-.1.5-.1.7l-62.7 3c-.1-1.1-.9-2-2-2.3-.9-.2-1.8.1-2.4.6l-20-20.2 37.1-6.3c.3 1.1 1 1.8 2 2zm-86.3-44l84.5 40.6c0 .1-.1.2-.1.3-.1.3-.1.5-.1.8l-37.4 6.3-47.2-47.6c.1-.1.2-.3.3-.4zm6.4 52.4l-8-51.2c.4-.1.7-.3 1-.5l46.9 47.4-37.2 6.3c-.2-.9-.9-1.6-1.9-1.9-.3-.1-.5-.1-.8-.1zm1 5.1l.6-.3 39.3 50.1-17.8 30.6c-.2-.1-.3-.1-.5-.2-.4-.1-.8-.1-1.2 0l-20.4-80.2zm-40.2 94.7l58.7-11.3c.3.9.9 1.6 1.9 1.8.8.2 1.6 0 2.2-.5l23.2 25.9c-.3.3-.5.6-.6 1.1l-85.4-16.5v-.5zm-.1.9l85.4 16.5c-.1.9.3 1.7.9 2.2l-27 37.6c-.2-.1-.5-.2-.7-.3-.8-.2-1.7 0-2.3.6L256 439.1c.2-.3.3-.6.4-1zm-2 1.9c.4-.1.9-.3 1.2-.6l56.7 55.6c-.2.3-.4.6-.5 1-.2.9.1 1.9.8 2.5l-34.2 44-.6-.3c-.4-.1-.8-.1-1.1 0L254.4 440zm14.7 151l-46-30.2c.1-.2.2-.4.2-.6.1-.4.1-.7 0-1.1l51.4-13.5c.3.8 1 1.4 1.8 1.6 1.4.3 2.8-.5 3.1-1.9v-.3l32.4-.3c.1.6.3 1.1.7 1.5l-40.2 44.1c-.2-.2-.5-.3-.8-.4-1-.1-2 .3-2.6 1.1zm1 4c.1.1.3.1.4.2h.1l-5 83.6-33.5-1.1 38-82.7zm-82.5 180c-.1 0-.1-.1-.2-.1l44.5-96.8 33.7 1.1-.2 3.2-77.8 92.6zm76.3-68.3c-1.1.1-2.1.8-2.4 2-.2.7 0 1.4.3 1.9L188.1 775l77.2-92-1.4 23.7zm48.1-18.2c-.1.5-.1.9 0 1.3L266.3 708c-.3-.6-.9-1-1.6-1.2h-.3l1.5-24.2 2.7-3.2 43.3 1.4 1.7 6c-.8.2-1.4.9-1.6 1.7zm2-1.9l-1.7-5.9 3.9.1-1.4 5.7c-.2 0-.5 0-.8.1zm1.3 0l1.4-5.8 36.6 1.2v.1l-36.3 6.3c-.2-.8-.8-1.5-1.7-1.8zm17.1 30.5L316 691.3c.5-.3 1-.9 1.1-1.6.1-.3.1-.6.1-.8l36.3-6.3c.2.6.5 1.1 1 1.4l-19.7 33c-.2-.1-.3-.1-.5-.2-.7-.1-1.4 0-1.9.3zm-7.6 57.5c-.2-.1-.3-.2-.5-.2l9.1-52.4c1.3.1 2.4-.7 2.8-2 .2-.7 0-1.3-.3-1.9l43.3-28.9c.1.2.3.3.4.4l-54.8 85zm55.1-89.3c-.5.3-.9.8-1.1 1.4l-20.3-4.5c.2-1.3-.7-2.6-2-2.9-.3-.1-.6-.1-1 0l-18-79.5h.2l42.2 85.5zm-6.4-89.5c0 .2-.1.3-.1.5l-34.1.9c-.1-1.1-.9-2-2-2.2-.5-.1-1-.1-1.4.1l-20-48.1c.2-.1.4-.3.6-.5l57.3 48.6c-.1.2-.3.4-.3.7zm.6-1.1l-57.2-48.6c.2-.3.3-.6.4-.9.2-.7 0-1.5-.4-2l51.9-43.7c.3.4.8.6 1.3.8.2 0 .3.1.5.1l5 93.6c-.6-.1-1.1.2-1.5.7zm45.9-44.3c-.1.3-.1.7 0 1l-29.3 7.2c-.3-.8-.9-1.5-1.8-1.7-1.4-.3-2.8.5-3.1 1.9-.3 1.3.4 2.5 1.5 3l-10.6 32.1c-.2 0-.4-.1-.5-.1l-5-93.6c.4-.1.9-.2 1.2-.5l48.3 49.6c-.3.3-.6.7-.7 1.1zm2.4-2c-.5 0-1 .2-1.4.6l-48.3-49.6c.3-.3.5-.7.6-1.1.2-.8 0-1.6-.5-2.2l48.2-46.3c.3.3.7.5 1.1.6.1 0 .3 0 .4.1l-.1 97.9zm-.9-102.9l-15.7-26.1c.4-.3.7-.7.9-1.2l40.4 11.5c-.3 1.4.6 2.7 1.9 3 .9.2 1.8-.1 2.4-.7l35.2 29.8c-.1.2-.3.4-.3.7l-61.2-14.3c.2-1.3-.6-2.6-2-2.9-.5-.1-1.1-.1-1.6.2zm24.7 53.7l-22.8 49.4c-.1 0-.2-.1-.3-.1h-.3v-98c.3 0 .5-.1.7-.2l22.6 44.9c-.4.3-.7.8-.9 1.4-.1 1 .3 1.9 1 2.6zm3.3-4.1c-.3-.2-.6-.4-1-.5-.7-.2-1.3 0-1.9.3L424 450c.5-.3.9-.8 1.1-1.4l61.2 14.3c-.1.7.1 1.3.4 1.8l-37.2 30.4zm65.1 23.7c-.9.1-1.8.6-2.2 1.5l-62.1-22.4v-.1c.2-.9 0-1.7-.6-2.4l37.2-30.3c.3.3.7.6 1.2.7 1.2.3 2.4-.3 2.9-1.3l21.6 8.9v.1c-.3 1.4.5 2.8 1.9 3.1.2 0 .3.1.5.1l-.4 42.1zm1.3-47.2c-.3-.1-.6-.1-.9 0l-14.6-68c.4-.1.8-.4 1-.7l47.8 42.4c-.2.3-.4.6-.5 1-.2.7 0 1.4.3 2l-31.8 24.2c-.3-.4-.8-.8-1.3-.9zm103.2 24.2l-101.3-21.3c.1-.6 0-1.1-.3-1.6l31.8-24.3c.3.4.8.7 1.3.8 1 .2 2-.2 2.7-.9l66 46.8c0 .2-.1.3-.2.5zm-52.5 35c.2-.3.4-.6.5-1 .2-.7 0-1.3-.3-1.9l52.6-29.9c.2.4.6.7 1 1L596 555.6l-29.4-24.8zm22.7 44.6c-.2-.4-.6-.7-1-.9l7.8-18.2 11.5 9.7-18.3 9.4zm7-19.5l24.4-56.8c.1 0 .1.1.2.1.9.2 1.8-.1 2.5-.7l42.8 35.5c-.2.3-.3.5-.4.9-.1.5-.1 1.1.1 1.6L608 565.9l-11.7-10zm71.8-17.9l-2.7 74.1c-.6 0-1.2.3-1.7.7l-55.2-46.6 57.7-29.4c.3.6.9 1 1.6 1.2h.3zm-.5-5.1c-.4.1-.8.4-1 .6L623.8 498c.2-.3.3-.5.4-.9.1-.2.1-.5.1-.7l34.1-4.6 9.2 41.1zm43.8-48.7l-52.8 7.1-11.1-48.9c.5-.1 1-.4 1.4-.8l62.8 41.3c-.3.4-.3.9-.3 1.3zm.7-1.9c-.1.1-.1.2-.2.3l-62.8-41.3c.1-.2.3-.5.3-.7.2-.7 0-1.5-.4-2l20.4-14.6 42.8 58.3c0-.1-.1-.1-.1 0zm2.9-.6c-.8-.3-1.6-.3-2.3.2l-42.8-58.3L782 343.3c.2.2.4.4.6.5L715 481.7zM1758.7 604c.2-.2.3-.4.4-.7l48.8 17.7c-.1.4-.1.8 0 1.2l-64.1 18.2 12.4-35.6c.8.2 1.8 0 2.5-.8zm-4.3-.6c.1.3.3.6.6.8.2.2.4.3.7.4l-12.5 35.9-27.6 7.9c-.1-.3-.3-.6-.6-.9-.8-.7-2-.9-2.9-.4l-13.9-23.1 56.2-20.6zM1605.7 692l29.5-29.9c.9.7 2.3.8 3.2 0l43.1 46.7c-.3.3-.4.6-.6 1l-74.6-15.8c.1-.7-.1-1.4-.6-2zm-70 36.4l18.2-14.6.1.1c1 .9 2.6.9 3.6-.1l45.3 36c-.1.2-.2.4-.3.5l-66.6-19.9c.2-.6.1-1.4-.3-2zm-22.3-117.2l66.7-18.5c.1.4.4.8.7 1.1.6.6 1.4.8 2.2.6l17.3 64.5c-.4.1-.7.4-1 .7-.1.1-.2.2-.2.3l-85.9-47.2c.2-.4.3-1 .2-1.5zm-17.5-63.1l70.1-26.8c.1.3.3.6.6.8.6.5 1.3.7 2 .7l13.3 66.6c-.5.1-.9.4-1.3.8-.1.1-.2.3-.3.4l-84.4-40.7c.2-.6.2-1.2 0-1.8zm139.4 41l33.8-7.9c.1.3.3.6.5.9l-34.5 38.6c-1.1-.8-2.5-.6-3.4.4l-.2.2-46.7-28.2c.2-.3.3-.7.3-1.1l45-2.3c.1.6.3 1.2.8 1.7 1.1 1 2.7.9 3.7-.2.6-.6.8-1.4.7-2.1zm.9 33.3l54.9-9.1 6.3 10.5-28.6 10.5-32.7-11c.1-.2.2-.6.1-.9zm32.7 12.4l41.5 14-50.2-9.5c0-.4 0-.8-.2-1.2l8.9-3.3zm-.7-.2l-8.3 3.1c-.1-.2-.3-.4-.5-.6-1.1-1-2.7-.9-3.7.2s-.9 2.7.2 3.7c.6.6 1.4.8 2.2.6l5.3 14.7-24.1 3.4c-.1-.5-.4-1-.8-1.4-.5-.5-1.2-.7-1.9-.7l-2.6-32.1c.6-.1 1.1-.4 1.5-.8.2-.2.3-.5.4-.7l32.3 10.6zm-36.3-9.9c.5.5 1.1.7 1.7.7l2.6 32.2c-.5.1-1 .4-1.4.8-.4.5-.6 1-.7 1.6l-30.5 1.2c-.1-.6-.3-1.2-.8-1.6-.6-.6-1.4-.8-2.2-.6l-17.3-64.5c.4-.1.8-.4 1.1-.7.1-.1.1-.2.2-.2l46.7 28.2c-.5.9-.3 2.1.6 2.9zm-1.8-35.5l-45 2.3c-.1-.6-.3-1.1-.8-1.6s-1.3-.7-1.9-.7l-13.3-66.6c.3-.1.7-.2.9-.5l60.8 65.4c-.4.6-.6 1.2-.7 1.7zm-30.8 74l-42 46.7c-.5-.4-1.2-.6-1.8-.5l-8.7-47.3c.3-.1.6-.3.9-.6.5-.5.7-1.2.7-1.8l50.2 1.8c0 .6.3 1.2.7 1.7zm-41.4 50.3c.5-.7.6-1.5.4-2.2l43.1-16.4c.1.3.3.6.6.8.5.4 1 .6 1.6.7l1.3 52.4c-.6.1-1.2.3-1.7.8l-45.3-36.1zm43.9-21.5c-.6.7-.8 1.6-.6 2.5l-43.1 16.4c-.1-.2-.3-.4-.4-.6l42-46.7c1.1.8 2.6.7 3.5-.3.4-.5.6-1 .7-1.6l30.5-1.2c.1.5.3 1 .6 1.4l-29.5 29.9c-1.2-1-2.8-.9-3.7.2zm36.9-30.2c.5-.5.7-1.2.7-1.8l24.2-3.4 18.7 51.6c-.2.1-.3.2-.5.3l-43.1-46.7zm19.8-20.4c.4-.1.7-.4 1-.7.3-.3.5-.7.6-1l50.4 9.6v.3l-46.7 6.5-5.3-14.7zm11-6.8l28.1-10.4 13.9 23.1c-.1.1-.3.2-.4.4-.2.2-.3.5-.4.7l-41.2-13.8zm84.7-31.7l-56.4 20.7-6.3-10.5 62.7-10.2zm-80.7-20.7c.3-.3.5-.7.6-1.1l80.1 20.8v.6l-62.8 10.4-18.2-30.3c.1-.2.2-.3.3-.4zm-.8.5l18.1 30.1-54.8 9c-.1-.4-.3-.7-.6-1l34.4-38.6c.9.9 2 1 2.9.5zm17.9-61.7l-18.4 56.9c-.9-.2-1.8.1-2.5.8-.5.6-.7 1.4-.6 2.1l-33.8 7.9c-.1-.4-.3-.7-.6-1l55.6-66.9s.1.1.3.2zm-.8-.6l-55.6 66.9c-.7-.5-1.6-.6-2.4-.3l-19.9-41.8c.2-.1.4-.3.6-.5.6-.6.8-1.5.6-2.3l76.1-22.9c.1.4.3.7.6.9zM1588.3 489c.3-.3.4-.6.6-1l100.3 29.8c-.1.4-.2.9-.1 1.3L1613 542c-.1-.4-.4-.7-.7-1-.7-.7-1.7-.8-2.6-.5l-22-51.2c.2 0 .4-.2.6-.3zm-1 .6l22 51.1c-.3.1-.5.3-.7.5-1 1.1-.9 2.7.2 3.7.7.7 1.8.8 2.6.5l19.9 41.8c-.1.1-.2.1-.3.2l-60.8-65.4c1-1.1.9-2.7-.2-3.7-.1-.1-.2-.2-.3-.2l15.4-28.5c.8.3 1.5.3 2.2 0zm-38.1-28.9c.7-.8.9-1.9.5-2.8l48.6-25.8c.1.2.3.4.4.5.3.2.6.4.9.5l-12.9 51.5c-.8-.1-1.7.2-2.3.8-1 1.1-.9 2.7.2 3.7l.2.2-15.4 28.6c-.5-.2-1.1-.3-1.6-.1l-19.3-56.5c.3-.2.5-.4.7-.6zm-3.1.5c.6.3 1.3.4 2 .2l19.3 56.5c-.3.1-.6.3-.9.6-.3.4-.5.8-.6 1.2l-51.8-5.6c0-.7-.3-1.5-.8-2-.1-.1-.1-.1-.2-.1l33-50.8zm-33.4 50.6c-.6-.3-1.2-.4-1.9-.2l-18.6-47.6c.3-.1.5-.3.7-.5.4-.4.6-1 .7-1.5l51.1-2.7c.1.6.3 1.2.8 1.7.1.1.1.1.2.1l-33 50.7zm-71.5-58.8c.8.2 1.8 0 2.4-.6l4.4 4-18.7 31.5h-.1l12-34.9zm-12.4 34.7c-.6-.1-1.2-.1-1.7.2l-19.4-33.1c.2-.1.3-.2.4-.4.4-.5.7-1.1.7-1.7l30.5-2c0 .6.3 1.3.8 1.7.2.2.5.3.7.4l-12 34.9zm15.1-35.7c.2-.3.3-.5.4-.8l5.9 1.4-2 3.4-4.3-4zm.5-1.3c.1-.8-.2-1.6-.8-2.2-.4-.3-.8-.5-1.2-.6l6.1-48.9c.7 0 1.4-.3 1.9-.8.1-.1.1-.2.2-.2l20.5 13 1.5 3.9-22.1 37.3-6.1-1.5zm27.3-39.4l2.2 1.4-1 1.7-1.2-3.1zm1.1 4.1l17 44c-.3.1-.6.3-.8.6-.3.3-.4.6-.5.9l-37.6-8.6 21.9-36.9zm.3-.5l1.2-2 70.8 44.6c-.2.4-.3.7-.4 1.1l-51.1 2.7c-.1-.6-.3-1.2-.8-1.7-.7-.6-1.6-.8-2.5-.6l-17.2-44.1zm18.5-31.2l54.1 73.1-.3.3-70.8-44.7 17-28.7zm-63.7-86l63.4 85.7-17.2 29-2.7-1.7-43.7-112.8c.1-.1.1-.2.2-.2zm-.5.6l43.4 111.9-20-12.6c.5-1 .3-2.3-.5-3.1-.5-.5-1.2-.7-1.9-.7l-21-95.5zm19.3 100.1c.4.4.9.6 1.4.6l-6.1 48.8c-.7 0-1.5.2-2 .8-.4.4-.6.9-.7 1.5l-30.6 2c-.1-.6-.3-1.1-.8-1.5-1-1-2.7-.9-3.6.1l-.3.3-17-11.9 59.6-41.1c-.1.2 0 .3.1.4zm-.5-.7l-59.7 41.2-43.6-30.5 103-11.4c.1.2.1.5.3.7zm-138.7-15.4l138.4 14.1v.1L1342.3 408l-35.2-24.6c.2-.4.3-.7.4-1.1zm-.7 1.5l34.8 24.3-13.4 1.5-21.4-25.8zm-.4.4l21.2 25.5-18.8 2.1-3.3-27.2c.3-.1.6-.3.9-.4zm-27.9 32.2l-45.6 34.1-.1-.1c-.3-.3-.7-.5-1.1-.6l14.4-86.5c.5.1 1 0 1.5-.2l31.6 50.1c-.1.1-.2.1-.3.2-.7.8-.9 2-.4 3zm-81.9-42.4l47.5-12.4c.1.4.4.7.7 1 .3.3.6.4.9.5l-14.4 86.5c-.4 0-.7 0-1.1.2l-34.7-73.1c.2-.1.4-.2.5-.4.5-.7.7-1.5.6-2.3zm51.4-11.1c.1-.1.3-.2.4-.4.2-.2.3-.4.4-.7l53.6 19.5c-.2.9 0 1.9.7 2.6.5.5 1.2.7 1.9.7l3.3 27.1-25 2.8c-.1-.5-.4-.9-.7-1.3-.9-.8-2.1-.9-3.1-.3l-31.5-50zm105.9-78.8c.1.1.3.2.4.3l-48.4 95.2c-1-.4-2.1-.2-2.9.6-.2.2-.3.4-.4.7l-53.6-19.5c.2-.7.1-1.5-.4-2.2l105-75.4.3.3zm-180.1 25l179.4-26.3c0 .2.1.4.2.6l-105.1 75.5s0-.1-.1-.1c-1.1-1-2.7-.9-3.7.1-.1.1-.1.2-.2.3l-70.9-48.8c.3-.4.4-.8.4-1.3zm-.7 2c.1-.1.1-.2.2-.2l70.9 48.8c-.2.5-.3 1-.2 1.6l-47.5 12.4c-.1-.3-.3-.6-.6-.9-.7-.6-1.6-.8-2.4-.6l-21-60.4c.2-.3.4-.5.6-.7zm-40-78.6c.2-.3.4-.5.5-.9l36.6 7c-.1.8.2 1.6.8 2.2.4.4.9.6 1.4.7l-1.3 65.2c-.3 0-.6.1-.9.2l-37.7-74c.2-.1.4-.3.6-.4zm-50 78.1c-.5-.4-1-.6-1.6-.7l-.9-30.5c.5-.1 1-.3 1.4-.6l29.7 29.8c-.9 1.1-.8 2.6.2 3.6.7.6 1.6.8 2.5.6l16.1 43.2c-.2.1-.4.3-.6.4l-46.4-42.4c.7-1 .6-2.5-.4-3.4zm-4.3 2.3l-64.6 16.8c-.1-.4-.4-.8-.7-1.1l-.2-.2 28.6-46.4c1 .5 2.3.3 3.1-.5.5-.5.7-1.1.7-1.7l32.2-2.4c.1.5.4 1 .8 1.4.5.4 1 .6 1.6.7l.9 30.5c-.6.1-1.2.3-1.6.8-.7.5-.9 1.3-.8 2.1zm-169.4 12l51.3-21.6c.1.3.3.5.5.7 1.1 1 2.7.9 3.7-.1.7-.7.8-1.8.5-2.6l41.9-19.6c.1.1.1.2.2.3l-65.9 60.3c-1.1-1-2.7-.9-3.7.1-.1.1-.2.2-.2.3L909.3 327c.4-.6.4-1.4.1-2.1zm98.5-42.6c.4.4 1 .6 1.5.7l2 45c-.6.1-1.1.3-1.6.8s-.7 1.2-.7 1.9l-66.7 12.8c-.1-.3-.2-.7-.5-.9l66-60.3zm1.9.6c.6 0 1.3-.3 1.7-.8 1-1.1.9-2.7-.1-3.7-.6-.5-1.4-.8-2.1-.7l-7.6-33.9c.3-.1.6-.3.9-.5l38.3 34.8c-.8 1.1-.7 2.5.3 3.4l.2.2-28.6 46.4c-.3-.2-.7-.3-1.1-.3l-1.9-44.9zm-6.5-42.6l30.3-17.9 8.6 54.9c-.3.1-.7.3-1 .6l-38.3-34.8c.7-.8.8-1.9.4-2.8zm79.1 35l47.1-42.7c.3.3.6.5 1 .6l-16.4 74.5c-.7-.1-1.4.1-2 .6l-29.7-29.8c.7-1 .7-2.3 0-3.2zm-.3-.4c-.5-.5-1.2-.7-1.8-.7l-3.2-24.2 51.7-18.3c.1.2.2.3.3.5l-47 42.7zm-24.5-17.2c1.1 1 2.7.9 3.7-.1.6-.6.8-1.4.6-2.2l14.7-5.2 3.2 24.1c-.5.1-1 .4-1.4.8-.5.5-.7 1.2-.7 1.9l-32.2 2.4c-.1-.6-.3-1.1-.8-1.5-.2-.2-.5-.3-.7-.5l11.1-32.1 3 8.3c-.2.1-.4.3-.6.5-1 1-.9 2.7.1 3.6zm71.1-26.4l-51.7 18.3-6.1-46.6c.5-.1 1-.4 1.3-.8.1-.1.2-.2.2-.3l56.2 28c0 .5 0 1 .1 1.4zm-52.1 18.4l-14.8 5.2c-.1-.4-.4-.7-.7-1-.3-.3-.7-.5-1-.6l10-50.3h.3l6.2 46.7zm-16.9 3.6c-.4 0-.8 0-1.2.1l-3.2-8.8 14.3-41.4-9.9 50.1zm-4.6-9.4l-10.1-28.2 23.3-13.7c.1.1.2.3.4.4.2.2.5.3.7.4l-14.3 41.1zm-.2.7l-11.3 32.6c-.3-.1-.7-.1-1 0l-8.6-55 10.6-6.2 10.3 28.6zm59.9 68c.3-.1.6-.3.8-.6.4-.5.6-1 .7-1.6l52.4-.9c0 .6.3 1.2.8 1.7l-36.4 45c-.7-.5-1.5-.6-2.2-.4l-16.1-43.2zm54.5-5.1c-.4.4-.6 1-.7 1.5l-52.4.9c-.1-.6-.3-1.2-.8-1.6-.3-.3-.6-.5-1-.6l16.4-74.5c.4.1.9 0 1.3-.2l37.7 74c-.2.2-.3.4-.5.5zm-67.2-121.8c.5-.6.8-1.3.7-2.1l71.4-15.2c.1.4.3.7.6 1l-42.2 59c-.8-.5-1.8-.5-2.6 0l-28.2-42.5c.1 0 .2-.1.3-.2zm-.7.5l28.2 42.5-.3.3c-.2.2-.3.4-.4.6l-56.2-28c.5-1 .3-2.2-.6-3-.7-.6-1.6-.8-2.4-.6l-7.5-27.4 35.4 12.7c-.2.9 0 1.9.7 2.6.9.7 2.1.8 3.1.3zm-56.8-81l53.8 76.7c-.1.1-.2.1-.2.2-.2.2-.3.4-.4.7L1062 170l-17.8-64.6c.2 0 .3-.1.4-.2zm-1.9.3c.4.1.8.1 1.2.1l17.7 64.3-35.5-12.7c.2-.9 0-1.9-.7-2.6-.2-.2-.4-.3-.7-.4l18-48.7zm-17.3 52.7c.2-.2.3-.4.4-.7l35.8 12.8 7.6 27.7c-.3.1-.6.3-.9.6-.7.8-.9 2-.4 2.9l-23.2 13.7-20.2-56.4c.4-.1.7-.3.9-.6zm-1.2.8l20.3 56.5-10.5 6.2-9.8-62.7c-.1 0-.1 0 0 0zm-1.2 0h.6l9.8 62.9-30.5 18c-.1-.1-.2-.3-.4-.4-.3-.3-.7-.5-1.1-.6L1023 159zm-81.4 62.9l56.8 18.9c-.2.9 0 1.9.8 2.5.6.5 1.4.8 2.1.7l7.6 33.9c-.4.1-.7.3-1 .6l-66.4-56.1c0-.2.1-.3.1-.5zm-.5.8l66.4 56.1c-.5.7-.6 1.6-.3 2.4l-41.9 19.6c-.1-.2-.3-.4-.5-.6-.6-.6-1.5-.8-2.3-.6l-22.3-76.3c.3-.1.6-.3.9-.6zm-2.7.7c.4.1.9.2 1.3.1l22.3 76.3c-.4.1-.7.3-1 .6-.7.7-.8 1.7-.6 2.6l-51.3 21.6c-.1-.2-.3-.4-.4-.5-.3-.3-.6-.4-1-.6l30.7-100.1zm-86.4 90c.2-.1.4-.3.5-.4.2-.3.4-.6.5-.9l51.4 13.4c-.1.8.1 1.7.8 2.3 1.1 1 2.7.9 3.7-.1l.2-.2 28.4 15.6c-.2.5-.3 1.1-.2 1.6l-56.7 18.8c-.1-.3-.3-.5-.5-.7-.8-.7-1.9-.9-2.8-.5L852 313.4zm18.9 154.9l4-4.4 31.4 19v.1l-34.7-12.2c.2-.9 0-1.8-.7-2.5zm.3-6.6l3.4 2-4 4.3c-.2-.2-.5-.3-.8-.4l1.4-5.9zm-.3-.7l-36.7-22.2 44.1-16.7c.1.3.3.6.6.8.3.3.6.4.9.6l-8.9 37.5zm4.4 2.6l56.3-60.6c.2.2.5.3.7.4l-23.1 78.1c-.9-.2-1.8.1-2.4.8-.1.1-.1.2-.2.2l-31.3-18.9zm-.4-.2l-3.6-2.2 9-37.6c.8.1 1.7-.1 2.3-.8.7-.7.8-1.7.6-2.5l47.7-18.2c.1.2.2.4.4.6l-56.4 60.7zm55.9-61.8L883 419.8c-.1-.3-.3-.5-.5-.7-.4-.4-1-.6-1.5-.7l-2.3-51.2c.6-.1 1.2-.3 1.7-.8.1-.1.1-.1.1-.2l50.5 33.5c-.3.6-.4 1.3-.2 1.9zM877 366.9c.4.2.7.3 1.1.4l2.3 51.1c-.6.1-1.2.3-1.7.8-.6.7-.8 1.6-.6 2.5l-44.4 16.8-2-1.2 45.3-70.4zm-43.8 71.8l-3.1 1.2 1.4-2.2 1.7 1zm43.1-72.5l.3.3-45.2 70.5-28.7-17.3 73.6-53.5zm-160 116.7l-.1-.1v-.1l86.2-62.7 28.8 17.4-1.7 2.7-113.2 42.8zm96.9-21.7c-.5.5-.7 1.2-.7 1.8l-95.7 20.2 112.3-42.5-12.8 19.9c-1-.4-2.3-.2-3.1.6zm54 7.1c-.3.3-.5.8-.6 1.2l-48.8-6.6c0-.7-.3-1.4-.8-1.9-.1-.1-.2-.1-.2-.2l13.1-20.4 4-1.5 37.1 22.4-1.5 6.1c-.9 0-1.8.3-2.3.9zm2 4.4c.6 0 1.3-.3 1.7-.8.2-.2.3-.4.4-.7l34.7 12.3c-.1.6-.1 1.2.2 1.7L873 504.3c-.1-.2-.2-.3-.4-.4-.5-.4-1.1-.7-1.7-.7l-1.7-30.5zm-33 77c-.1-.2-.2-.3-.4-.5l33.6-41.3c1 .7 2.5.6 3.4-.4.5-.5.7-1.1.7-1.7l51.9-4.1c0 .2.1.4.2.6l-89.4 47.4zm89.2-48.4l-51.9 4.1c0-.2-.1-.5-.2-.7l33.3-19.2c.1.1.2.3.4.4 1 .9 2.6.9 3.5 0l15.5 13.8c-.4.5-.6 1.1-.6 1.6zm2.5-2.6c-.6 0-1.2.3-1.7.7l-15.5-13.8c.8-1.1.7-2.5-.3-3.5-.2-.2-.5-.4-.8-.5l23.1-78.1h.2l-5 95.2zm5.4-100.3c-.7 0-1.5.2-2 .8-.1.1-.1.1-.1.2l-50.5-33.5c.3-.6.4-1.3.2-1.9l56.6-18.8c.1.3.3.6.6.9.4.3.8.5 1.2.6l-6 51.7zm32.8 19.1c-.1.1-.2.2-.3.4L935.7 402c.4-1 .2-2.2-.6-2.9-.4-.3-.8-.5-1.2-.6l6-51.7c.3 0 .5 0 .8-.1l26.2 70.4c-.4 0-.6.2-.8.4zm1.1-.7L941 346.5c.3-.1.6-.3.8-.6.5-.5.7-1.3.7-1.9l66.7-12.8c.1.5.4.9.8 1.3.1.1.3.2.4.3L969 416.9c-.6-.3-1.2-.3-1.8-.1zm61.7-16.1c-.2.3-.4.5-.5.9l-29.1-8.1c.2-.8-.1-1.8-.8-2.4-1.1-1-2.7-.9-3.7.1-.9.9-.9 2.4-.2 3.3l-24.9 22.8c-.1-.1-.3-.2-.4-.3l41.4-84.1c.4.2.9.2 1.3.1l18 67c-.4.1-.8.3-1.1.7zm1.5-.8l-17.9-66.9c.4-.1.8-.4 1.1-.7.6-.6.8-1.4.6-2.2l64.7-16.8c.1.4.4.7.7 1 .1.1.2.2.3.2L1032 400c-.5-.1-1.1-.2-1.6-.1zm48.4-34.6c-.5.1-1 .4-1.4.8-.7.7-.9 1.8-.5 2.7l-44 32-.2-.2c-.1-.1-.2-.1-.3-.2l47.9-85.5c.2.1.5.2.7.2l-2.2 50.2zm.4-.1l2.2-50.2c.6 0 1.2-.3 1.6-.7l46.4 42.4c-.4.5-.6 1.2-.5 1.8l-47.3 8.3c-.1-.3-.3-.6-.6-.9-.5-.4-1.1-.7-1.8-.7zm47.7 54.1c-.8-.4-1.9-.3-2.6.2l-43.2-49.9s.1 0 .1-.1c.6-.7.8-1.5.6-2.4l47.3-8.3c.1.5.4.9.7 1.2.9.8 2.2.9 3.2.3l14.5 18.4-.1.1c-1 1.1-.9 2.7.1 3.7.1.1.3.2.4.3l-21 36.5zm20.9-40.8l-14.5-18.4.1-.1c.9-1 .9-2.6-.1-3.6l36.4-45c.2.1.4.2.5.3l-20.5 66.4c-.5-.1-1.3 0-1.9.4zm2.5-.2l20.5-66.4c.4.1.8 0 1.3-.1l21 60.4c-.3.1-.6.3-.9.6-.5.5-.7 1.2-.7 1.9l-39.6 5.6c-.1-.6-.3-1.1-.8-1.5-.3-.2-.5-.4-.8-.5zm1 4c.4-.5.5-1 .6-1.6l39.6-5.6c.1.5.4 1 .8 1.3.8.7 1.9.9 2.8.5l34.7 73.1c-.2.1-.3.2-.5.4l-78-68.1zm15.1 72.9c.3-.1.7-.3.9-.6.5-.5.7-1.2.7-1.8l60.5-.4c0 .5.1.9.4 1.4l-49 37.5-13.5-36.1zm-2 50c0-.4-.2-.9-.4-1.3l15.7-12 5.3 14.1-20.6-.8zm48.4 69.2c-.6-.3-1.2-.3-1.8-.2l-25.4-67.7 64.7 2.6c0 .7.3 1.3.8 1.8.1.1.2.1.2.2l-38.5 63.3zm38.2-67.1c-.4.4-.6.9-.7 1.4l-64.9-2.6-5.4-14.4 49.1-37.6c0 .1.1.1.1.2.7.6 1.6.8 2.5.6l20 51.9c-.2 0-.5.2-.7.5zm2.4-.8c-.4-.1-.8-.1-1.2 0l-20-51.9c.3-.1.5-.3.8-.6.2-.2.3-.4.4-.6l32 12.6-12 40.5zm12.1-40.9l-31.9-12.6c.2-.8.1-1.6-.4-2.2l45.6-34 .3.3c.2.2.4.3.6.4l-14.2 48.1zm50.4 19.2c-.2.2-.3.4-.4.6l-49.6-19.6 14.2-48.1c.5.2 1.1.1 1.6 0l34.6 66.8c-.2 0-.3.2-.4.3zm.8-.6l-34.6-66.8c.2-.1.4-.3.6-.5.5-.6.7-1.3.7-2l25-2.8 8.8 71.8c-.1.2-.3.2-.5.3zm3.1.7c-.1-.1-.1-.2-.2-.3-.5-.5-1.2-.7-1.9-.7l-8.8-71.8 19.1-2.1 36.6 44-44.8 30.9zm8.7-74.9l13.6-1.5 43.9 30.7-21.1 14.5-36.4-43.7zm81.6 97.3l-.3.2-44.5-53.3 21.2-14.6 17.3 12.1c-.4 1-.2 2.2.6 2.9.5.5 1.1.7 1.8.7l4.5 51.9c-.3-.1-.5 0-.6.1zm1-.3l-4.5-51.9c.2 0 .5-.1.7-.2l19.4 33.1c-.2.1-.3.2-.4.4-.9 1-.9 2.6.1 3.5l-13.7 15.6c-.5-.3-1.1-.5-1.6-.5zm97.8 6.7l-95.2-4.2c0-.6-.3-1.2-.7-1.7l13.7-15.6c1.1.8 2.6.7 3.5-.3.2-.2.4-.5.5-.8l78.3 22.5c-.1 0-.1.1-.1.1zm.1-.5l-78.3-22.5c.2-.9-.1-1.8-.8-2.4-.1-.1-.2-.1-.2-.2l18.7-31.4 61.1 55.8c-.2.2-.4.4-.5.7zm.8-1.1l-61.2-55.9 2.1-3.6 37.7 8.7c-.1.8.2 1.7.8 2.3.7.6 1.7.8 2.5.5l18.6 47.6c-.1.1-.3.3-.5.4zm-14.9 34.7l15.6-30.3c1 .4 2.2.2 2.9-.6.3-.4.5-.8.6-1.2l51.8 5.6c0 .3 0 .5.1.8l-70.2 26.8c-.1-.2-.3-.5-.5-.7-.1-.3-.2-.3-.3-.4zm16.8 62.4l7.9-29.2c.8.2 1.8-.1 2.4-.8 1-1.1.9-2.7-.2-3.7-.9-.9-2.4-.9-3.3-.1l-23-24.8c.1-.1.2-.3.3-.4l84.4 40.7c-.2.4-.2.9-.1 1.3l-66.7 18.5c-.1-.4-.4-.8-.7-1-.4-.2-.7-.4-1-.5zm.8 4.4l.2-.2c.1-.1.1-.2.2-.3l85.9 47.2c-.1.2-.2.5-.2.7l-50.3-1.8c-.1-.5-.4-1-.8-1.4-.8-.7-1.8-.8-2.7-.5l-32.3-43.7zm19.1 114.5c-.1.1-.2.3-.3.4l-36.6-20.7c.4-.8.3-1.9-.3-2.6l49.5-43.6s0 .1.1.1c.7.6 1.5.8 2.4.6l8.7 47.2c-.5.1-.9.4-1.2.7-.8.9-.9 2.2-.2 3.2l-18.2 14.6-.1-.1c-1.2-.9-2.8-.8-3.8.2zm8.3 43.9l-5.9-39.6c.6-.1 1.1-.4 1.5-.8.2-.2.3-.5.5-.7l66.6 19.9c-.1.4 0 .8.1 1.3l-60.2 21.5c-.1-.3-.3-.6-.6-.9-.6-.5-1.3-.7-2-.7zm1.2 5c.3-.1.6-.3.9-.6.6-.7.8-1.6.6-2.4l60.2-21.5c.1.2.3.5.5.7.1.1.2.1.2.2l-48.2 71.3c-.5-.2-1-.3-1.6-.2l-12.6-47.5zm90.7 156.8c-.1.1-.2.3-.3.4l-95.6-47.6c.4-1 .2-2.1-.7-2.9-.2-.2-.4-.3-.7-.4l19.1-53.7c.7.2 1.5.1 2.2-.4l76.3 104.4c-.1 0-.2 0-.3.2zm1.3-.8c-.2 0-.4.1-.6.2l-76.4-104.4s.1 0 .1-.1c1-1.1.9-2.7-.2-3.7-.1-.1-.2-.1-.3-.2l48.2-71.3c.4.2.9.3 1.3.2l27.9 179.3zm-25.8-183.1c-.1-.2-.3-.4-.4-.5-.4-.4-1-.6-1.5-.7l-1.3-52.4c.6-.1 1.2-.3 1.6-.8.3-.3.4-.6.6-1l74.6 15.8c-.1.4 0 .9.2 1.3l-73.8 38.3zm68.5-.2c-.8-.1-1.6.2-2.2.8-.4.4-.6.9-.7 1.4l-65.2-.7c0-.3-.1-.6-.2-.9l73.7-38.3c.1.2.3.4.5.6.3.2.5.4.9.5l-6.8 36.6zm6.9-41.6l-18.7-51.5 46.6-6.5c.1.5.4 1 .8 1.3.1.1.2.2.3.2l-27.6 56.5c-.4-.1-.9-.1-1.4 0zM1746 753c-.4.1-.7.4-1 .7l-59.4-41.7c.5-.8.5-1.8 0-2.6l42.2-28.6.3.3c.6.5 1.4.7 2.1.6L1746 753zm-15.5-76.4c-.9-.2-1.9 0-2.6.8-.8.8-.9 2.1-.3 3l-42.2 28.6-.3-.3c-.2-.2-.4-.3-.6-.4l27.5-56.4c1 .4 2.2.2 3-.6.6-.7.8-1.6.6-2.4l27.3-7.8-12.4 35.5zm1.4.9c-.1-.1-.1-.2-.2-.2-.2-.2-.4-.3-.7-.4l12.5-35.9 64.4-18.3c.1.1.1.3.2.4l-76.2 54.4z" fill="#0e98bd"/></svg>